<svg width="64" height="64" viewBox="0 0 64 64" fill="none" xmlns="http://www.w3.org/2000/svg">
<circle cx="32" cy="32" r="32" fill="#34D10D"/>
<path fill-rule="evenodd" clip-rule="evenodd" d="M26.2839 22.6147C25.9715 22.3023 25.4649 22.3023 25.1525 22.6147L16.5864 31.1808C16.4727 31.2945 16.4003 31.434 16.3694 31.5805C16.2807 31.8569 16.346 32.172 16.5654 32.3914L25.1315 40.9575C25.4439 41.2699 25.9504 41.2699 26.2629 40.9575L28.364 38.8564C28.6764 38.544 28.6764 38.0374 28.364 37.725L23.5669 32.928C22.9421 32.3031 22.9421 31.2901 23.5669 30.6652L28.385 25.8472C28.6974 25.5348 28.6974 25.0282 28.385 24.7158L26.2839 22.6147Z" fill="white"/>
<path fill-rule="evenodd" clip-rule="evenodd" d="M37.8584 22.6147C38.1708 22.3023 38.6773 22.3023 38.9898 22.6147L47.5558 31.1808C47.6695 31.2945 47.7419 31.434 47.7729 31.5805C47.8616 31.8569 47.7962 32.172 47.5768 32.3914L39.0108 40.9575C38.6984 41.2699 38.1918 41.2699 37.8793 40.9575L35.7782 38.8564C35.4658 38.544 35.4658 38.0374 35.7782 37.725L40.5753 32.928C41.2002 32.3031 41.2002 31.2901 40.5753 30.6652L35.7572 25.8472C35.4448 25.5348 35.4448 25.0282 35.7572 24.7158L37.8584 22.6147Z" fill="white"/>
</svg>
