<svg width="64" height="64" viewBox="0 0 64 64" fill="none" xmlns="http://www.w3.org/2000/svg">
<circle cx="32" cy="32" r="32" fill="#8E26F5"/>
<path fill-rule="evenodd" clip-rule="evenodd" d="M32 43.2C38.1856 43.2 43.2 38.1856 43.2 32C43.2 25.8144 38.1856 20.8 32 20.8C25.8144 20.8 20.8 25.8144 20.8 32C20.8 38.1856 25.8144 43.2 32 43.2ZM32 48C40.8366 48 48 40.8366 48 32C48 23.1634 40.8366 16 32 16C23.1634 16 16 23.1634 16 32C16 40.8366 23.1634 48 32 48Z" fill="white"/>
<path d="M32 36C34.2091 36 36 34.2091 36 32C36 29.7909 34.2091 28 32 28C29.7909 28 28 29.7909 28 32C28 34.2091 29.7909 36 32 36Z" fill="white"/>
</svg>
