<svg width="64" height="64" viewBox="0 0 64 64" fill="none" xmlns="http://www.w3.org/2000/svg">
<circle cx="32" cy="32" r="32" fill="#FF5C5C"/>
<path d="M44 32.8751C45.1046 32.8751 46.0137 33.7745 45.8669 34.8692C45.5638 37.1287 44.7483 39.2986 43.472 41.2086C41.8238 43.6754 39.4811 45.598 36.7403 46.7333C33.9994 47.8686 30.9834 48.1657 28.0736 47.5869C25.1639 47.0081 22.4912 45.5795 20.3934 43.4817C18.2956 41.3839 16.867 38.7112 16.2882 35.8015C15.7094 32.8917 16.0065 29.8757 17.1418 27.1348C18.2771 24.394 20.1997 22.0513 22.6665 20.4031C24.5765 19.1268 26.7464 18.3113 29.0059 18.0082C30.1006 17.8614 31 18.7705 31 19.8751V30.8751C31 31.9797 31.8954 32.8751 33 32.8751H44Z" fill="white"/>
<path d="M34 17.8751C34 16.7705 34.8999 15.8605 35.9932 16.0177C37.1462 16.1836 38.2766 16.493 39.3576 16.9408C41.0561 17.6444 42.5995 18.6756 43.8995 19.9756C45.1995 21.2756 46.2308 22.819 46.9343 24.5175C47.3821 25.5985 47.6915 26.7289 47.8574 27.8819C48.0146 28.9752 47.1046 29.8751 46 29.8751H36C34.8954 29.8751 34 28.9797 34 27.8751V17.8751Z" fill="white"/>
</svg>
