<svg width="64" height="64" viewBox="0 0 64 64" fill="none" xmlns="http://www.w3.org/2000/svg">
<circle cx="32" cy="32" r="32" fill="#FF8D13"/>
<path fill-rule="evenodd" clip-rule="evenodd" d="M41.4956 20.075L43.1806 19.7554C43.7784 19.642 44.3027 20.1663 44.1893 20.7641L43.8697 22.4491C43.6113 23.8112 42.9488 25.064 41.9685 26.0443L38.7718 29.241C38.4347 29.5781 37.8882 29.578 37.5512 29.2408L34.7043 26.3923C34.3675 26.0553 34.3676 25.509 34.7045 25.1721L37.9004 21.9762C38.8807 20.9959 40.1335 20.3334 41.4956 20.075ZM23.6057 44.4018C23.6264 44.3846 23.6465 44.3663 23.6659 44.3469L29.2409 38.7719C29.578 38.4348 29.5779 37.8883 29.2408 37.5513L26.3924 34.7043C26.0554 34.3674 25.5091 34.3675 25.1721 34.7044L19.5978 40.2788C19.5786 40.298 19.5605 40.3178 19.5435 40.3383C19.5228 40.3554 19.5027 40.3737 19.4834 40.3931L19.2799 40.5965C18.6059 41.2705 18.6059 42.3634 19.2799 43.0374L20.9072 44.6646C21.5812 45.3387 22.674 45.3387 23.3481 44.6646L23.5515 44.4612C23.5706 44.4421 23.5887 44.4222 23.6057 44.4018Z" fill="white"/>
<path d="M29.311 25.2434C29.311 25.2435 29.3111 25.2433 29.311 25.2434L30.3636 26.2956C29.5595 25.4915 29.5501 25.1643 29.5311 24.5097C29.5264 24.3475 29.5211 24.1651 29.503 23.9506C29.5555 22.4131 28.9949 20.8586 27.8213 19.685C26.3156 18.1793 24.1829 17.6827 22.2635 18.1952L25.6857 21.6173C26.0227 21.9543 26.0227 22.5007 25.6857 22.8377L22.8345 25.6889C22.4988 26.0246 21.9551 26.0261 21.6176 25.6924L18.6062 22.7156L18.1904 22.2817C17.6859 24.1963 18.1841 26.3203 19.6851 27.8213C20.8579 28.9941 22.411 29.5547 23.9474 29.5031C24.1634 29.5214 24.3467 29.5267 24.5097 29.5314C25.1526 29.5501 25.4798 29.5595 26.253 30.3216L40.8391 44.9077C41.5131 45.5817 42.6059 45.5817 43.2799 44.9077L44.9072 43.2804C45.5812 42.6064 45.5812 41.5136 44.9072 40.8396L29.311 25.2434Z" fill="white"/>
</svg>
