<svg width="64" height="64" viewBox="0 0 64 64" fill="none" xmlns="http://www.w3.org/2000/svg">
<circle cx="32" cy="32" r="32" fill="#14AFC5"/>
<path fill-rule="evenodd" clip-rule="evenodd" d="M35.4431 36.7445C33.9553 37.9467 32.0617 38.6667 30 38.6667C25.2135 38.6667 21.3333 34.7865 21.3333 30C21.3333 25.2135 25.2135 21.3333 30 21.3333C34.7865 21.3333 38.6667 25.2135 38.6667 30C38.6667 32.4762 37.6282 34.7099 35.9629 36.2893C35.7919 36.393 35.6336 36.5244 35.4948 36.683C35.4771 36.7033 35.4599 36.7238 35.4431 36.7445ZM37.1956 40.8287C35.1352 42.2005 32.661 43 30 43C22.8203 43 17 37.1797 17 30C17 22.8203 22.8203 17 30 17C37.1797 17 43 22.8203 43 30C43 33.0669 41.938 35.8858 40.1616 38.1089L46.317 43.4948C47.1483 44.2222 47.2325 45.4857 46.5052 46.317C45.7778 47.1483 44.5143 47.2325 43.683 46.5052L37.1956 40.8287Z" fill="white"/>
</svg>
