<svg width="64" height="64" viewBox="0 0 64 64" fill="none" xmlns="http://www.w3.org/2000/svg">
<circle cx="32" cy="32" r="32" fill="#1472FF"/>
<path d="M45.125 17H18.875C17.8395 17 17 17.8395 17 18.875V22.625C17 23.6605 17.8395 24.5 18.875 24.5H45.125C46.1605 24.5 47 23.6605 47 22.625V18.875C47 17.8395 46.1605 17 45.125 17Z" fill="white"/>
<path d="M45.125 27.3125H29.1875C28.152 27.3125 27.3125 28.152 27.3125 29.1875V45.125C27.3125 46.1605 28.152 47 29.1875 47H45.125C46.1605 47 47 46.1605 47 45.125V29.1875C47 28.152 46.1605 27.3125 45.125 27.3125Z" fill="white"/>
<path d="M22.625 27.3125H18.875C17.8395 27.3125 17 28.152 17 29.1875V45.125C17 46.1605 17.8395 47 18.875 47H22.625C23.6605 47 24.5 46.1605 24.5 45.125V29.1875C24.5 28.152 23.6605 27.3125 22.625 27.3125Z" fill="white"/>
</svg>
