<svg
    width="194"
    height="31"
    viewBox="0 0 194 31"
    fill="none"
    xmlns="http://www.w3.org/2000/svg"
>
    <path
        fill-rule="evenodd"
        clip-rule="evenodd"
        d="M114.633 20.4452V9.47334L121.28 9.42397C122.203 9.41679 123.029 9.45453 123.754 9.50638C124.3 9.54464 124.797 9.62117 125.249 9.73936C125.701 9.85689 126.085 9.99976 126.4 10.1672C126.715 10.3372 126.983 10.527 127.198 10.7353C127.416 10.9436 127.588 11.1878 127.723 11.4701C127.854 11.75 127.931 12.0518 127.954 12.3733C127.979 12.733 127.94 13.0699 127.84 13.3828C127.74 13.6958 127.569 13.9917 127.323 14.2665C127.079 14.5436 126.764 14.782 126.379 14.9819C125.995 15.1825 125.448 15.3884 124.738 15.5975L128.026 20.3433H123.509L119.728 14.2887C120.124 14.3406 120.602 14.3517 120.979 14.3517C121.504 14.3517 122.085 14.3471 122.506 14.2297C122.926 14.1114 123.038 13.8907 123.242 13.6433C123.443 13.3965 123.536 13.1388 123.516 12.8643C123.5 12.6337 123.404 12.4305 123.225 12.258C123.047 12.0826 122.775 11.9534 122.411 11.8684C122.05 11.7834 121.496 11.7393 120.753 11.7393C120.498 11.7393 120.24 11.7438 119.967 11.7504L119.134 11.7724L119.245 20.4453H114.633L114.633 20.4452Z"
        fill="#B7B9CC"
    />
    <path
        fill-rule="evenodd"
        clip-rule="evenodd"
        d="M63.1421 9.59961H69.0206L71.29 16.2318L73.5492 9.59961H79.4077V20.5012H75.7579V12.1885L72.9259 20.5012H69.6232L66.8023 12.1885V20.5012H63.1421V9.59961Z"
        fill="#B7B9CC"
    />
    <path
        fill-rule="evenodd"
        clip-rule="evenodd"
        d="M56.378 18.7016H51.2869L50.5864 20.5013H46.0215L51.4556 9.59961H56.3274L61.765 20.5013H57.0884L56.3781 18.7016H56.378ZM55.442 16.3436L53.8426 12.425L52.2533 16.3436H55.442Z"
        fill="#B7B9CC"
    />
    <path
        fill-rule="evenodd"
        clip-rule="evenodd"
        d="M30.6729 9.59961H35.1413V13.4144H40.0259V9.59961H44.5144V20.5012H40.0259V16.0923H35.1413V20.5012H30.6729V9.59961Z"
        fill="#B7B9CC"
    />
    <path
        fill-rule="evenodd"
        clip-rule="evenodd"
        d="M82.2524 9.60156H86.7838V20.4202H82.2524V9.60156ZM86.9564 14.7116C88.4267 13.0249 89.9389 11.3506 91.2861 9.60156C92.9458 9.61593 94.6018 9.61332 96.2616 9.60156L91.5239 14.6715L96.9004 20.4202C95.1516 20.4086 93.4063 20.4053 91.6582 20.4202C90.7001 19.1348 89.1325 17.2325 86.9563 14.7116H86.9564Z"
        fill="#B7B9CC"
    />
    <path
        fill-rule="evenodd"
        clip-rule="evenodd"
        d="M103.211 12.0892C102.019 12.0892 101.045 12.9527 101.045 14.0082V15.8307C101.045 16.8856 102.019 17.7498 103.211 17.7498H106.644C107.835 17.7498 108.81 16.8855 108.81 15.8307V14.0082C108.81 12.9527 107.835 12.0892 106.644 12.0892H103.211ZM101.578 9.39673H108.277C110.601 9.39673 112.503 11.0822 112.503 13.1416V16.6973C112.503 18.7566 110.601 20.4419 108.277 20.4419H101.578C99.2535 20.4419 97.3525 18.7566 97.3525 16.6973V13.1416C97.3525 11.0822 99.2535 9.39673 101.578 9.39673Z"
        fill="#B7B9CC"
    />
    <path
        fill-rule="evenodd"
        clip-rule="evenodd"
        d="M161.38 9.59961H165.556L171 15.6308V9.59961H175.212V20.5012H171L165.583 14.5159V20.5012H161.38V9.59961Z"
        fill="#B7B9CC"
    />
    <path
        fill-rule="evenodd"
        clip-rule="evenodd"
        d="M154.538 18.7016H149.447L148.747 20.5013H144.181L149.615 9.59961H154.487L159.925 20.5013H155.248L154.538 18.7016H154.538ZM153.602 16.3436L152.002 12.425L150.413 16.3436H153.601H153.602Z"
        fill="#B7B9CC"
    />
    <path
        fill-rule="evenodd"
        clip-rule="evenodd"
        d="M130.284 9.59961H138.65C140.044 9.59961 141.114 9.86184 141.859 10.3817C142.606 10.9025 142.98 11.5465 142.98 12.3133C142.98 12.9581 142.715 13.5118 142.182 13.9728C141.826 14.2811 141.306 14.5239 140.623 14.7018C141.661 14.8894 142.427 15.2128 142.916 15.671C143.405 16.1288 143.65 16.7073 143.65 17.3993C143.65 17.9654 143.476 18.4738 143.129 18.9257C142.78 19.3774 142.303 19.7327 141.698 19.9961C141.324 20.1593 140.758 20.2778 140 20.3521C138.994 20.4501 138.327 20.5014 137.998 20.5014H130.284V9.59974L130.284 9.59961ZM134.792 13.8767H136.734C137.432 13.8767 137.918 13.7871 138.192 13.6045C138.466 13.4242 138.6 13.1605 138.6 12.821C138.6 12.5035 138.465 12.2548 138.192 12.0771C137.917 11.8971 137.441 11.8074 136.765 11.8074H134.792V13.8767ZM134.792 18.159H137.071C137.842 18.159 138.384 18.0562 138.698 17.8513C139.014 17.6453 139.172 17.3695 139.172 17.0215C139.172 16.6995 139.018 16.4405 138.704 16.245C138.391 16.0496 137.846 15.9509 137.061 15.9509H134.792V18.1588V18.159Z"
        fill="#B7B9CC"
    />
    <path
        fill-rule="evenodd"
        clip-rule="evenodd"
        d="M177.702 9.60156H182.233V20.4202H177.702V9.60156ZM182.405 14.7116C183.876 13.0249 185.388 11.3506 186.736 9.60156C188.395 9.61593 190.051 9.61332 191.711 9.60156L186.973 14.6715L192.349 20.4202C190.601 20.4086 188.856 20.4053 187.108 20.4202C186.149 19.1348 184.582 17.2325 182.405 14.7116H182.405Z"
        fill="#B7B9CC"
    />
    <path
        fill-rule="evenodd"
        clip-rule="evenodd"
        d="M8.733 5.39771H16.3504L7.61732 26.5279H0L8.733 5.39771Z"
        fill="#B7B9CC"
    />
    <path
        fill-rule="evenodd"
        clip-rule="evenodd"
        d="M19.5768 0H27.1942L18.4612 21.1303H10.8438L19.5768 0Z"
        fill="#B7B9CC"
    />
    <path
        fill-rule="evenodd"
        clip-rule="evenodd"
        d="M99.974 30.3862H101.153C101.356 30.3862 101.498 30.379 101.581 30.3641C101.723 30.3395 101.845 30.2979 101.941 30.2389C102.039 30.1811 102.118 30.0955 102.18 29.9839C102.243 29.8717 102.274 29.743 102.274 29.5963C102.274 29.4254 102.229 29.2768 102.137 29.1501C102.047 29.0229 101.922 28.9347 101.761 28.8833C101.602 28.8315 101.369 28.806 101.069 28.806H99.9741V30.3863L99.974 30.3862ZM99.974 28.2684H100.998C101.275 28.2684 101.474 28.2509 101.594 28.2152C101.754 28.1698 101.874 28.0932 101.955 27.9867C102.035 27.8803 102.076 27.7465 102.076 27.5862C102.076 27.4328 102.039 27.2986 101.962 27.183C101.887 27.0674 101.779 26.9876 101.64 26.9447C101.5 26.9025 101.26 26.8812 100.92 26.8812H99.974V28.2684ZM99.3467 30.9237V26.3428H101.122C101.483 26.3428 101.773 26.389 101.992 26.4817C102.21 26.5744 102.381 26.7176 102.504 26.9102C102.629 27.1026 102.69 27.3037 102.69 27.5147C102.69 27.7102 102.635 27.8944 102.526 28.0678C102.418 28.2399 102.252 28.3795 102.031 28.4859C102.317 28.567 102.538 28.706 102.69 28.9021C102.845 29.0974 102.921 29.3285 102.921 29.5953C102.921 29.8103 102.875 30.0101 102.78 30.1946C102.687 30.379 102.572 30.5206 102.434 30.6213C102.296 30.7207 102.123 30.7959 101.916 30.8472C101.708 30.8984 101.454 30.9237 101.151 30.9237H99.3467Z"
        fill="#B7B9CC"
    />
    <path
        fill-rule="evenodd"
        clip-rule="evenodd"
        d="M103.884 26.3428H104.512V30.9237H103.884V26.3428Z"
        fill="#B7B9CC"
    />
    <path
        fill-rule="evenodd"
        clip-rule="evenodd"
        d="M106.257 28.3644H107.601C107.888 28.3644 108.11 28.3351 108.271 28.2773C108.432 28.2207 108.554 28.1298 108.637 28.0027C108.72 27.8769 108.762 27.7405 108.762 27.5923C108.762 27.3762 108.681 27.1965 108.52 27.0567C108.358 26.9173 108.102 26.8477 107.754 26.8477H106.257V28.3642V28.3644ZM105.63 30.923V26.3428H107.727C108.149 26.3428 108.469 26.3842 108.688 26.4661C108.908 26.5485 109.082 26.6933 109.214 26.9016C109.345 27.1086 109.41 27.3399 109.41 27.591C109.41 27.9163 109.3 28.1903 109.084 28.4129C108.866 28.6361 108.532 28.7772 108.078 28.8375C108.244 28.914 108.37 28.9913 108.456 29.0653C108.639 29.2276 108.812 29.4314 108.973 29.6755L109.792 30.9227H109.01L108.384 29.9696C108.203 29.6938 108.052 29.4839 107.934 29.3373C107.815 29.1912 107.709 29.0899 107.615 29.0316C107.523 28.9737 107.427 28.9335 107.33 28.9101C107.26 28.8957 107.144 28.8886 106.982 28.8886H106.257V30.9227H105.629L105.63 30.923Z"
        fill="#B7B9CC"
    />
    <path
        fill-rule="evenodd"
        clip-rule="evenodd"
        d="M112.603 29.1239V28.5863H114.606V30.2834C114.298 30.5205 113.981 30.6995 113.654 30.819C113.327 30.9386 112.992 30.9982 112.647 30.9982C112.183 30.9982 111.76 30.9022 111.38 30.7087C111.002 30.5171 110.714 30.2379 110.522 29.8738C110.328 29.5095 110.231 29.1025 110.231 28.6532C110.231 28.2079 110.327 27.7916 110.519 27.4053C110.712 27.019 110.989 26.7316 111.35 26.5451C111.711 26.3575 112.128 26.264 112.599 26.264C112.94 26.264 113.25 26.3172 113.527 26.4249C113.803 26.5328 114.02 26.6814 114.177 26.8723C114.334 27.0644 114.453 27.3152 114.535 27.6229L113.969 27.7728C113.898 27.5403 113.809 27.3567 113.704 27.2223C113.599 27.0891 113.449 26.9827 113.254 26.9021C113.058 26.823 112.841 26.7821 112.602 26.7821C112.317 26.7821 112.07 26.8249 111.861 26.9093C111.653 26.9938 111.485 27.104 111.356 27.243C111.229 27.3801 111.13 27.5318 111.059 27.6963C110.939 27.9806 110.878 28.2877 110.878 28.6194C110.878 29.0291 110.951 29.3711 111.095 29.6472C111.24 29.9218 111.453 30.127 111.729 30.2601C112.006 30.3938 112.3 30.4613 112.613 30.4613C112.883 30.4613 113.148 30.4092 113.405 30.308C113.663 30.2055 113.858 30.0984 113.992 29.982V29.1238H112.603L112.603 29.1239Z"
        fill="#B7B9CC"
    />
    <path
        fill-rule="evenodd"
        clip-rule="evenodd"
        d="M116.369 29.0429H117.981L117.488 27.7724C117.339 27.3869 117.227 27.0681 117.149 26.8162C117.084 27.1148 116.997 27.4076 116.888 27.6985L116.369 29.0429H116.369ZM115.008 30.9232L116.823 26.3428H117.512L119.437 30.9232H118.725L118.178 29.535H116.185L115.672 30.9232H115.008H115.008Z"
        fill="#B7B9CC"
    />
    <path
        fill-rule="evenodd"
        clip-rule="evenodd"
        d="M119.912 30.9237V26.3428H120.54V30.3862H122.866V30.9237H119.912Z"
        fill="#B7B9CC"
    />
    <path
        fill-rule="evenodd"
        clip-rule="evenodd"
        d="M123.717 26.3428H124.344V30.9237H123.717V26.3428Z"
        fill="#B7B9CC"
    />
    <path
        fill-rule="evenodd"
        clip-rule="evenodd"
        d="M125.42 30.9237V26.3428H126.048V28.6139L128.399 26.3428H129.246L127.261 28.201L129.332 30.9237H128.506L126.823 28.6118L126.048 29.3377V30.9237H125.42Z"
        fill="#B7B9CC"
    />
    <path
        fill-rule="evenodd"
        clip-rule="evenodd"
        d="M130.482 30.3862H131.49C131.802 30.3862 132.047 30.3589 132.224 30.3025C132.401 30.2454 132.542 30.1668 132.648 30.0642C132.795 29.92 132.911 29.7267 132.994 29.4832C133.076 29.2404 133.118 28.9456 133.118 28.5997C133.118 28.1199 133.037 27.7503 132.875 27.4928C132.713 27.235 132.516 27.0623 132.283 26.9747C132.116 26.9116 131.846 26.8812 131.474 26.8812H130.482V30.3862ZM129.854 30.9237V26.3428H131.484C131.852 26.3428 132.133 26.3648 132.327 26.4083C132.598 26.4694 132.829 26.5791 133.02 26.7368C133.27 26.9414 133.456 27.2017 133.58 27.5192C133.704 27.8366 133.766 28.201 133.766 28.6094C133.766 28.9566 133.724 29.2643 133.641 29.5337C133.556 29.8026 133.449 30.0246 133.318 30.2012C133.185 30.3763 133.042 30.5154 132.886 30.6159C132.731 30.7171 132.542 30.7937 132.322 30.8458C132.101 30.8983 131.847 30.9236 131.561 30.9236H129.854V30.9237Z"
        fill="#B7B9CC"
    />
    <path
        fill-rule="evenodd"
        clip-rule="evenodd"
        d="M135.468 29.0429H137.08L136.588 27.7724C136.438 27.3869 136.326 27.0681 136.248 26.8162C136.183 27.1148 136.096 27.4076 135.987 27.6985L135.468 29.0429ZM134.106 30.9232L135.921 26.3428H136.61L138.536 30.9232H137.824L137.276 29.535H135.284L134.771 30.9232H134.106Z"
        fill="#B7B9CC"
    />
    <path
        fill-rule="evenodd"
        clip-rule="evenodd"
        d="M141.725 30.9236V28.9832L139.901 26.3428H140.654L141.589 27.7297C141.764 27.9868 141.926 28.243 142.073 28.501C142.217 28.2601 142.392 27.9911 142.596 27.6927L143.512 26.3428H144.243L142.353 28.9832V30.9236H141.725Z"
        fill="#B7B9CC"
    />
    <path
        fill-rule="evenodd"
        clip-rule="evenodd"
        d="M147.893 26.3429H148.521V28.9885C148.521 29.4487 148.467 29.815 148.36 30.0857C148.253 30.3559 148.059 30.5766 147.779 30.7453C147.498 30.9156 147.131 31.0005 146.675 31.0005C146.233 31.0005 145.872 30.9271 145.591 30.7784C145.309 30.6304 145.108 30.4168 144.988 30.137C144.868 29.8559 144.807 29.4735 144.807 28.9885V26.3429H145.435V28.9872C145.435 29.3852 145.474 29.6798 145.55 29.8668C145.626 30.0558 145.756 30.2019 145.942 30.3031C146.126 30.4057 146.353 30.4562 146.621 30.4562C147.079 30.4562 147.407 30.3558 147.601 30.1536C147.797 29.9512 147.893 29.5628 147.893 28.987V26.3428V26.3429Z"
        fill="#B7B9CC"
    />
    <path
        fill-rule="evenodd"
        clip-rule="evenodd"
        d="M149.542 30.9237V26.3428H150.169V28.6139L152.519 26.3428H153.367L151.383 28.201L153.453 30.9237H152.628L150.943 28.6118L150.169 29.3377V30.9237H149.542Z"
        fill="#B7B9CC"
    />
    <path
        fill-rule="evenodd"
        clip-rule="evenodd"
        d="M153.774 29.4507L154.362 29.3995C154.39 29.6299 154.455 29.8182 154.557 29.9668C154.659 30.1135 154.818 30.2336 155.033 30.3252C155.248 30.4155 155.49 30.4623 155.759 30.4623C155.998 30.4623 156.208 30.4279 156.391 30.3578C156.574 30.289 156.71 30.1942 156.798 30.0734C156.888 29.9527 156.933 29.8221 156.933 29.6807C156.933 29.5386 156.89 29.4134 156.804 29.3061C156.718 29.1991 156.576 29.11 156.378 29.0359C156.251 28.9892 155.971 28.9145 155.535 28.8139C155.1 28.7119 154.796 28.6173 154.623 28.5275C154.396 28.412 154.229 28.2698 154.119 28.0997C154.007 27.9302 153.952 27.7394 153.952 27.5298C153.952 27.2974 154.021 27.0811 154.156 26.8805C154.292 26.6786 154.489 26.5261 154.75 26.4215C155.01 26.317 155.3 26.265 155.618 26.265C155.968 26.265 156.277 26.3195 156.545 26.4292C156.813 26.5383 157.019 26.6994 157.163 26.9122C157.307 27.1245 157.384 27.3653 157.396 27.6342L156.794 27.6788C156.762 27.3893 156.653 27.1705 156.467 27.0244C156.281 26.8757 156.005 26.8024 155.643 26.8024C155.263 26.8024 154.987 26.8693 154.814 27.0037C154.641 27.138 154.554 27.2997 154.554 27.4899C154.554 27.6535 154.616 27.7893 154.738 27.8956C154.859 28.0022 155.173 28.1113 155.681 28.2222C156.191 28.334 156.54 28.4318 156.73 28.515C157.003 28.637 157.207 28.7916 157.338 28.9798C157.469 29.1673 157.535 29.3841 157.535 29.6296C157.535 29.8737 157.463 30.1022 157.319 30.3172C157.174 30.5327 156.968 30.7001 156.699 30.8196C156.429 30.9392 156.126 30.9988 155.787 30.9988C155.36 30.9988 155.002 30.9376 154.714 30.817C154.424 30.697 154.198 30.5157 154.034 30.2729C153.869 30.0308 153.784 29.7567 153.774 29.4503V29.4507Z"
        fill="#B7B9CC"
    />
    <path
        fill-rule="evenodd"
        clip-rule="evenodd"
        d="M159.226 29.0429H160.838L160.346 27.7724C160.197 27.3869 160.084 27.0681 160.006 26.8162C159.941 27.1148 159.854 27.4076 159.745 27.6985L159.226 29.0429ZM157.865 30.9232L159.68 26.3428H160.368L162.294 30.9232H161.582L161.035 29.535H159.043L158.529 30.9232H157.865H157.865Z"
        fill="#B7B9CC"
    />
    <path
        fill-rule="evenodd"
        clip-rule="evenodd"
        d="M162.769 30.9237V26.3428H163.397V30.3862H165.723V30.9237H162.769Z"
        fill="#B7B9CC"
    />
    <path
        fill-rule="evenodd"
        clip-rule="evenodd"
        d="M166.571 26.3428H167.199V30.9237H166.571V26.3428Z"
        fill="#B7B9CC"
    />
    <path
        fill-rule="evenodd"
        clip-rule="evenodd"
        d="M168.099 29.4507L168.687 29.3995C168.715 29.6299 168.779 29.8182 168.882 29.9668C168.984 30.1135 169.143 30.2336 169.357 30.3252C169.572 30.4155 169.815 30.4623 170.084 30.4623C170.323 30.4623 170.533 30.4279 170.716 30.3578C170.899 30.289 171.034 30.1942 171.123 30.0734C171.212 29.9527 171.258 29.8221 171.258 29.6807C171.258 29.5386 171.215 29.4134 171.129 29.3061C171.043 29.1991 170.901 29.11 170.703 29.0359C170.576 28.9892 170.295 28.9145 169.86 28.8139C169.425 28.7119 169.121 28.6173 168.947 28.5275C168.721 28.412 168.554 28.2698 168.443 28.0997C168.332 27.9302 168.277 27.7394 168.277 27.5298C168.277 27.2974 168.345 27.0811 168.481 26.8805C168.617 26.6786 168.814 26.5261 169.075 26.4215C169.335 26.317 169.625 26.265 169.943 26.265C170.293 26.265 170.602 26.3195 170.869 26.4292C171.138 26.5383 171.344 26.6994 171.488 26.9122C171.632 27.1245 171.709 27.3653 171.72 27.6342L171.119 27.6788C171.087 27.3893 170.978 27.1705 170.792 27.0244C170.606 26.8757 170.33 26.8024 169.967 26.8024C169.589 26.8024 169.311 26.8693 169.139 27.0037C168.966 27.138 168.879 27.2997 168.879 27.4899C168.879 27.6535 168.941 27.7893 169.063 27.8956C169.184 28.0022 169.498 28.1113 170.006 28.2222C170.516 28.334 170.865 28.4318 171.054 28.515C171.329 28.637 171.532 28.7916 171.664 28.9798C171.794 29.1673 171.86 29.3841 171.86 29.6296C171.86 29.8737 171.788 30.1022 171.644 30.3172C171.499 30.5327 171.293 30.7001 171.024 30.8196C170.754 30.9392 170.451 30.9988 170.113 30.9988C169.685 30.9988 169.327 30.9376 169.039 30.817C168.75 30.697 168.523 30.5157 168.359 30.2729C168.194 30.0308 168.108 29.7567 168.1 29.4503L168.099 29.4507Z"
        fill="#B7B9CC"
    />
    <path
        fill-rule="evenodd"
        clip-rule="evenodd"
        d="M172.737 30.9237V26.3428H173.364V28.2308H175.81V26.3428H176.438V30.9237H175.81V28.7683H173.364V30.9237H172.737Z"
        fill="#B7B9CC"
    />
    <path
        fill-rule="evenodd"
        clip-rule="evenodd"
        d="M179.115 29.4507L179.703 29.3995C179.731 29.6299 179.796 29.8182 179.899 29.9668C180 30.1135 180.159 30.2336 180.373 30.3252C180.589 30.4155 180.831 30.4623 181.101 30.4623C181.339 30.4623 181.549 30.4279 181.732 30.3578C181.914 30.289 182.05 30.1942 182.14 30.0734C182.229 29.9527 182.274 29.8221 182.274 29.6807C182.274 29.5386 182.231 29.4134 182.145 29.3061C182.059 29.1991 181.917 29.11 181.719 29.0359C181.592 28.9892 181.311 28.9145 180.876 28.8139C180.441 28.7119 180.137 28.6173 179.963 28.5275C179.737 28.412 179.569 28.2698 179.459 28.0997C179.348 27.9302 179.293 27.7394 179.293 27.5298C179.293 27.2974 179.362 27.0811 179.498 26.8805C179.633 26.6786 179.83 26.5261 180.091 26.4215C180.351 26.317 180.641 26.265 180.959 26.265C181.309 26.265 181.618 26.3195 181.886 26.4292C182.154 26.5383 182.36 26.6994 182.504 26.9122C182.648 27.1245 182.725 27.3653 182.736 27.6342L182.135 27.6788C182.103 27.3893 181.994 27.1705 181.807 27.0244C181.622 26.8757 181.346 26.8024 180.983 26.8024C180.604 26.8024 180.327 26.8693 180.155 27.0037C179.982 27.138 179.895 27.2997 179.895 27.4899C179.895 27.6535 179.957 27.7893 180.079 27.8956C180.2 28.0022 180.513 28.1113 181.023 28.2222C181.532 28.334 181.881 28.4318 182.07 28.515C182.344 28.637 182.548 28.7916 182.679 28.9798C182.81 29.1673 182.875 29.3841 182.875 29.6296C182.875 29.8737 182.804 30.1022 182.66 30.3172C182.515 30.5327 182.309 30.7001 182.04 30.8196C181.769 30.9392 181.466 30.9988 181.128 30.9988C180.701 30.9988 180.343 30.9376 180.054 30.817C179.765 30.697 179.539 30.5157 179.374 30.2729C179.21 30.0308 179.124 29.7567 179.115 29.4503L179.115 29.4507Z"
        fill="#B7B9CC"
    />
    <path
        fill-rule="evenodd"
        clip-rule="evenodd"
        d="M184.567 29.0429H186.18L185.687 27.7724C185.537 27.3869 185.425 27.0681 185.347 26.8162C185.282 27.1148 185.196 27.4076 185.086 27.6985L184.567 29.0429ZM183.206 30.9232L185.021 26.3428H185.71L187.636 30.9232H186.924L186.376 29.535H184.383L183.87 30.9232H183.206Z"
        fill="#B7B9CC"
    />
    <path
        fill-rule="evenodd"
        clip-rule="evenodd"
        d="M188.776 28.3644H190.119C190.406 28.3644 190.629 28.3351 190.789 28.2773C190.95 28.2207 191.072 28.1298 191.155 28.0027C191.239 27.8769 191.28 27.7405 191.28 27.5923C191.28 27.3762 191.2 27.1965 191.038 27.0567C190.876 26.9173 190.62 26.8477 190.272 26.8477H188.776V28.3642L188.776 28.3644ZM188.148 30.923V26.3428H190.245C190.667 26.3428 190.988 26.3842 191.206 26.4661C191.426 26.5485 191.601 26.6933 191.732 26.9016C191.864 27.1086 191.928 27.3399 191.928 27.591C191.928 27.9163 191.819 28.1903 191.602 28.4129C191.385 28.6361 191.05 28.7772 190.597 28.8375C190.763 28.914 190.889 28.9913 190.974 29.0653C191.157 29.2276 191.33 29.4314 191.492 29.6755L192.31 30.9227H191.528L190.903 29.9696C190.721 29.6938 190.57 29.4839 190.452 29.3373C190.332 29.1912 190.227 29.0899 190.134 29.0316C190.041 28.9737 189.946 28.9335 189.849 28.9101C189.778 28.8957 189.662 28.8886 189.5 28.8886H188.776V30.9227H188.148L188.148 30.923Z"
        fill="#B7B9CC"
    />
    <path
        fill-rule="evenodd"
        clip-rule="evenodd"
        d="M193.012 26.3428H193.64V30.9237H193.012V26.3428Z"
        fill="#B7B9CC"
    />
</svg>