<svg width="20" height="20" viewBox="0 0 20 20" fill="none" xmlns="http://www.w3.org/2000/svg">
<g clip-path="url(#clip0_146_27610)">
<path d="M10 1.80167C12.67 1.80167 12.9867 1.81167 14.0408 1.86C15.1792 1.91167 16.235 2.14 17.0475 2.9525C17.86 3.765 18.0883 4.82083 18.14 5.95917C18.1883 7.01333 18.1983 7.33 18.1983 10C18.1983 12.67 18.1883 12.9867 18.14 14.0408C18.0883 15.1792 17.86 16.235 17.0475 17.0475C16.235 17.86 15.1792 18.0883 14.0408 18.14C12.9867 18.1883 12.67 18.1983 10 18.1983C7.33 18.1983 7.01333 18.1883 5.95917 18.14C4.82083 18.0883 3.765 17.86 2.9525 17.0475C2.14 16.235 1.91167 15.1792 1.86 14.0408C1.81167 12.9867 1.80167 12.67 1.80167 10C1.80167 7.33 1.81167 7.01333 1.86 5.95917C1.91167 4.82083 2.14 3.765 2.9525 2.9525C3.765 2.14 4.82083 1.91167 5.95917 1.86C7.01333 1.81167 7.33 1.80167 10 1.80167ZM10 0C7.28417 0 6.94333 0.0116667 5.87667 0.06C4.25167 0.134167 2.82417 0.5325 1.67833 1.67833C0.5325 2.82417 0.134167 4.25167 0.06 5.87667C0.0116667 6.94333 0 7.28417 0 10C0 12.7158 0.0116667 13.0567 0.06 14.1233C0.134167 15.7483 0.5325 17.1758 1.67833 18.3217C2.82417 19.4675 4.25167 19.8658 5.87667 19.94C6.94333 19.9883 7.28417 20 10 20C12.7158 20 13.0567 19.9883 14.1233 19.94C15.7483 19.8658 17.1758 19.4675 18.3217 18.3217C19.4675 17.1758 19.8658 15.7483 19.94 14.1233C19.9883 13.0567 20 12.7158 20 10C20 7.28417 19.9883 6.94333 19.94 5.87667C19.8658 4.25167 19.4675 2.82417 18.3217 1.67833C17.1758 0.5325 15.7483 0.134167 14.1233 0.06C13.0567 0.0116667 12.7158 0 10 0Z" fill="#C4C4C4"/>
<path d="M10 4.86487C7.16416 4.86487 4.86499 7.16403 4.86499 9.99988C4.86499 12.8357 7.16416 15.1349 10 15.1349C12.8358 15.1349 15.135 12.8357 15.135 9.99988C15.135 7.16403 12.8358 4.86487 10 4.86487ZM10 13.3332C8.15916 13.3332 6.66666 11.8407 6.66666 9.99988C6.66666 8.15903 8.15916 6.66653 10 6.66653C11.8408 6.66653 13.3333 8.15903 13.3333 9.99988C13.3333 11.8407 11.8408 13.3332 10 13.3332Z" fill="#C4C4C4"/>
<path d="M15.3382 5.86155C16.0009 5.86155 16.5382 5.32429 16.5382 4.66155C16.5382 3.99881 16.0009 3.46155 15.3382 3.46155C14.6754 3.46155 14.1382 3.99881 14.1382 4.66155C14.1382 5.32429 14.6754 5.86155 15.3382 5.86155Z" fill="#C4C4C4"/>
</g>
<defs>
<clipPath id="clip0_146_27610">
<rect width="20" height="20" fill="white"/>
</clipPath>
</defs>
</svg>
