<svg
    width="105"
    height="46"
    viewBox="0 0 105 46"
    fill="none"
    xmlns="http://www.w3.org/2000/svg"
>
    <path
        fill-rule="evenodd"
        clip-rule="evenodd"
        d="M13.9344 30.1769V29.7787C14.3691 29.7577 14.6165 29.7206 14.6731 29.6705C14.7296 29.6206 14.7651 29.4964 14.7764 29.2981C14.7991 28.882 14.8105 28.106 14.8105 26.972C14.8105 26.5384 14.8038 25.9076 14.791 25.0815C14.7845 24.5186 14.7734 24.209 14.754 24.1543C14.7345 24.0976 14.7022 24.059 14.6537 24.0332C14.5844 23.9978 14.345 23.9687 13.9345 23.943V23.5462C14.5844 23.572 15.0821 23.5849 15.4263 23.5849C16.0195 23.5849 16.5561 23.5721 17.036 23.5462V23.943C16.6061 23.9688 16.3637 24.0026 16.3088 24.0445C16.2538 24.0883 16.2182 24.1865 16.2021 24.3397C16.1746 24.6431 16.16 25.256 16.16 26.1785C16.16 27.4077 16.1648 28.2626 16.1747 28.7465C16.1843 29.2304 16.2117 29.5175 16.2587 29.6095C16.2781 29.6498 16.3184 29.6819 16.38 29.7062C16.4411 29.7304 16.6595 29.7546 17.036 29.7788V30.177L16.4769 30.1626C16.1229 30.1498 15.8077 30.1432 15.5297 30.1432L13.9345 30.177L13.9344 30.1769ZM17.7374 30.1769V29.7787C18.1124 29.7512 18.3259 29.7206 18.3758 29.69C18.4131 29.6705 18.4422 29.6382 18.4615 29.59C18.4924 29.5109 18.5148 29.185 18.5295 28.6124C18.5442 28.0381 18.5505 27.4835 18.5505 26.9448C18.5505 25.9398 18.5407 25.2205 18.5197 24.7898C18.5004 24.3576 18.4665 24.1171 18.4212 24.0655C18.3758 24.0156 18.2385 23.9834 18.0108 23.9672L17.7374 23.943V23.5462L18.2724 23.5654C18.6038 23.5752 18.8673 23.58 19.0628 23.58C19.3311 23.58 19.7626 23.5704 20.3607 23.5511C20.6824 23.5383 20.9184 23.5317 21.0701 23.5317C21.636 23.5317 22.0529 23.5865 22.3228 23.6932C22.5928 23.7996 22.7981 23.9625 22.9386 24.1803C23.0792 24.3964 23.1488 24.6674 23.1488 24.9932C23.1488 25.5789 22.9418 26.0691 22.5264 26.4643C22.111 26.8595 21.5825 27.0577 20.9425 27.0577C20.8603 27.0577 20.7729 27.0513 20.6824 27.0385C20.5902 27.0255 20.4931 27.0095 20.388 26.9869C20.3349 26.8738 20.2782 26.7625 20.2183 26.6562L20.3268 26.5386C20.3961 26.5528 20.4608 26.5658 20.5191 26.5756C20.5772 26.5853 20.6306 26.5903 20.6773 26.5903C20.9958 26.5903 21.2559 26.4804 21.4581 26.2611C21.6601 26.0434 21.7619 25.7369 21.7619 25.3418C21.7619 24.9046 21.657 24.577 21.4483 24.3626C21.2399 24.1465 20.9344 24.0383 20.5303 24.0383C20.3656 24.0383 20.1732 24.0609 19.9533 24.1045C19.9178 25.0741 19.9002 25.8965 19.9002 26.5708C19.9002 26.7981 19.913 27.5207 19.9388 28.7402C19.9485 29.2225 19.9632 29.4999 19.9857 29.5709C20.0017 29.6257 20.0311 29.663 20.0761 29.6854C20.1455 29.7192 20.4138 29.7517 20.8809 29.7791V30.1773C20.3218 30.1549 19.8515 30.1435 19.47 30.1435C19.2987 30.1435 18.7218 30.1549 17.7373 30.1773L17.7374 30.1769ZM27.2735 30.2706C26.1082 30.2706 25.2161 29.9722 24.5986 29.3753C23.9796 28.7785 23.6694 27.9575 23.6694 26.9108C23.6694 26.1802 23.8196 25.5592 24.1202 25.0463C24.4194 24.5349 24.8362 24.1415 25.3679 23.8671C25.8997 23.593 26.5835 23.4558 27.4207 23.4558C28.2255 23.4558 28.8833 23.5881 29.3941 23.8511C29.9064 24.114 30.2993 24.4801 30.5756 24.9479C30.8519 25.4155 30.991 25.9899 30.991 26.6705C30.991 27.4077 30.8391 28.0448 30.5351 28.5819C30.2329 29.119 29.8062 29.5352 29.2552 29.8287C28.704 30.1238 28.0429 30.2707 27.2735 30.2707V30.2706ZM27.4529 29.7561C28.0881 29.7561 28.594 29.5222 28.9706 29.0543C29.3488 28.5866 29.5362 27.8754 29.5362 26.9203C29.5362 25.9188 29.3196 25.1493 28.888 24.6138C28.5374 24.1831 27.9976 23.967 27.2686 23.967C26.5865 23.967 26.0581 24.1929 25.6846 24.6428C25.3114 25.0928 25.1238 25.7864 25.1238 26.722C25.1238 27.3963 25.2255 27.9672 25.4308 28.4351C25.6361 28.9027 25.8981 29.2399 26.2148 29.4464C26.5316 29.6527 26.9453 29.756 27.4528 29.756L27.4529 29.7561ZM32.9934 30.1769V29.7787C33.1729 29.7787 33.3603 29.764 33.5576 29.7319C33.648 29.7158 33.7127 29.69 33.7513 29.6545C33.7886 29.6174 33.8177 29.5514 33.8355 29.453C33.8579 29.3173 33.8774 28.8206 33.8936 27.9592C33.9016 27.3496 33.9067 26.7253 33.9067 26.0882C33.9067 24.838 33.9033 24.2011 33.8953 24.1767C33.8873 24.1543 33.7758 24.1415 33.5606 24.1415C33.1227 24.1415 32.746 24.1543 32.4293 24.1801C32.2467 24.1945 32.1434 24.2107 32.1189 24.2269C32.0965 24.2429 32.077 24.2703 32.0658 24.3092C32.0528 24.3494 32.0254 24.6254 31.985 25.1383H31.5776C31.5843 24.5365 31.5662 24.0187 31.5261 23.5849L31.5776 23.5462C32.5717 23.5898 33.5397 23.6122 34.4805 23.6122C35.4179 23.6122 36.467 23.5898 37.6291 23.5462L37.6808 23.622C37.6209 24.0543 37.5789 24.5591 37.553 25.1383H37.1602C37.1311 24.6124 37.1036 24.3284 37.0746 24.2834C37.0536 24.2494 37.0019 24.2253 36.9242 24.2123C36.6706 24.1721 36.1695 24.1511 35.4179 24.1511C35.3549 24.1511 35.316 24.1607 35.3048 24.1801C35.2918 24.2011 35.2854 24.2849 35.2854 24.4302L35.2564 27.6059C35.2564 28.5254 35.2644 29.0899 35.2807 29.2996C35.2967 29.5093 35.3341 29.6368 35.3938 29.6802C35.4357 29.7076 35.6831 29.7416 36.1372 29.7786V30.1768C35.6733 30.1544 35.1804 30.143 34.6599 30.143C33.9747 30.143 33.4204 30.1544 32.9935 30.1768L32.9934 30.1769ZM38.4904 30.1769V29.9205C38.6585 29.8446 38.8121 29.7576 38.9495 29.6561C39.0141 29.1655 39.0449 28.1317 39.0449 26.5559C39.0449 25.4815 39.0335 24.7704 39.0126 24.4204C39.0027 24.2349 38.9705 24.117 38.9154 24.0688C38.8589 24.0203 38.6246 23.9784 38.2107 23.9429V23.5461C38.9558 23.575 39.546 23.5897 39.9773 23.5897L42.5861 23.5607C42.861 23.5607 43.1099 23.572 43.3295 23.593L43.3634 23.6462C43.294 23.9898 43.2439 24.4462 43.2114 25.0156H42.8381C42.822 24.556 42.8042 24.3108 42.7833 24.2786C42.7622 24.2478 42.691 24.2171 42.5681 24.1897C42.3065 24.1316 41.9056 24.1043 41.3656 24.1043C41.1006 24.1043 40.7901 24.1157 40.4363 24.1366C40.3959 25.1108 40.3717 25.8851 40.3653 26.4624C40.7031 26.4834 41.0213 26.4947 41.3171 26.4947C41.7569 26.4947 42.0203 26.4802 42.1092 26.4528C42.1625 26.4334 42.1996 26.3882 42.2225 26.3155C42.2417 26.2593 42.2628 26.0607 42.2886 25.7204H42.6959C42.6797 26.2528 42.6717 26.5994 42.6717 26.7593L42.6959 27.8239H42.2886C42.266 27.411 42.2385 27.1722 42.2031 27.1093C42.1836 27.0721 42.1415 27.0447 42.0753 27.0286C41.9169 26.9946 41.563 26.977 41.0102 26.977C40.8358 26.977 40.6337 26.9866 40.3992 27.006C40.3928 27.1721 40.3894 27.343 40.3894 27.5157C40.3894 28.4172 40.4056 29.1093 40.4363 29.5948L41.3738 29.6094C41.9087 29.6094 42.3953 29.5802 42.8381 29.5237C42.9173 29.2352 42.9917 28.9045 43.0644 28.5366H43.4588C43.3861 29.0914 43.3426 29.6238 43.3294 30.1335C43.0433 30.1657 42.767 30.1803 42.5019 30.1803C42.3275 30.1803 41.9848 30.1755 41.4741 30.1625C40.9973 30.1497 40.5593 30.1431 40.1583 30.1431C39.6299 30.1431 39.0755 30.1545 38.4904 30.1769ZM44.1021 30.1769V29.7787C44.4868 29.7512 44.7033 29.7254 44.7503 29.7045C44.7858 29.6884 44.8101 29.6674 44.8263 29.6416C44.8586 29.598 44.8827 29.5045 44.9021 29.3593C44.9378 29.1093 44.9555 28.6495 44.9589 27.9785L44.9637 26.1977C44.9637 25.6301 44.9555 25.1558 44.9378 24.7752C44.9202 24.3946 44.8957 24.172 44.8651 24.109C44.8456 24.0671 44.8134 24.0366 44.7699 24.014C44.7035 23.9834 44.4805 23.959 44.1023 23.9429V23.5461C44.6712 23.5687 45.1772 23.5798 45.6215 23.5798C46.1548 23.5798 46.6607 23.5687 47.1377 23.5461V23.9429C46.7399 23.9719 46.5105 24.0058 46.4489 24.0478C46.3878 24.0881 46.3503 24.1881 46.3374 24.3445C46.3214 24.5428 46.3116 25.3381 46.3086 26.727H46.3748C46.693 26.472 47.1538 26.043 47.7533 25.4429C48.353 24.843 48.8169 24.3429 49.1451 23.9428L49.1499 23.7686L49.1451 23.5928L49.187 23.5461C49.5313 23.5687 49.8255 23.5798 50.0678 23.5798C50.3247 23.5798 50.611 23.5687 50.9308 23.5461V23.9429L50.661 23.9719C50.446 23.9929 50.307 24.0171 50.2441 24.043C50.118 24.0994 49.9483 24.2155 49.7366 24.3929C49.4214 24.654 49.0222 25.0122 48.5389 25.4703L47.697 26.264L48.1317 26.7978C48.6456 27.4268 49.2598 28.143 49.9742 28.943C50.3847 29.4026 50.6303 29.6561 50.7128 29.7043C50.7695 29.7352 50.9197 29.7608 51.1622 29.7786V30.1768L50.9115 30.1674L50.0679 30.143C49.8417 30.143 49.5474 30.1544 49.1871 30.1768C48.9316 29.8478 48.5003 29.3235 47.8907 28.6027C47.4352 28.0607 47.0019 27.5687 46.588 27.1285C46.5346 27.0718 46.4959 27.038 46.4749 27.0284C46.4554 27.022 46.4361 27.0186 46.4184 27.0186C46.3698 27.0186 46.3375 27.038 46.3181 27.0766C46.3087 27.101 46.3037 27.2268 46.3037 27.4543L46.3232 28.8864C46.3296 29.3043 46.3474 29.5461 46.3749 29.6092C46.3944 29.6526 46.425 29.6849 46.4702 29.7042C46.5333 29.7317 46.7563 29.7575 47.1378 29.7785V30.1767C46.6706 30.1543 46.1533 30.1429 45.5844 30.1429C45.2968 30.1429 44.8038 30.1543 44.1023 30.1767L44.1021 30.1769ZM51.6033 29.7464C51.8991 29.7303 52.0815 29.7012 52.1511 29.6562C52.1996 29.6254 52.274 29.5046 52.3742 29.2981C52.5665 28.8884 52.8138 28.3189 53.1127 27.5915L54.7888 23.4944H55.4854L57.6254 28.5687C57.9033 29.2285 58.0748 29.5882 58.1393 29.6511C58.2041 29.7142 58.4044 29.7576 58.7389 29.7786V30.1768C58.2235 30.1544 57.7371 30.143 57.2795 30.143C56.733 30.143 56.2144 30.1544 55.7215 30.1768V29.7786C56.098 29.7639 56.3146 29.7416 56.3728 29.7157C56.431 29.6883 56.4602 29.6397 56.4602 29.5704C56.4602 29.5107 56.394 29.3059 56.2613 28.9575L55.9493 28.1494C55.5583 28.1429 55.1201 28.1398 54.6386 28.1398C54.2182 28.1398 53.8352 28.1429 53.4927 28.1494L53.284 28.6929C53.2258 28.8397 53.1564 29.0607 53.0756 29.3543C53.0561 29.4204 53.0466 29.4799 53.0466 29.5331C53.0466 29.6057 53.0772 29.6573 53.1386 29.6864C53.2 29.717 53.423 29.7479 53.8046 29.7785V30.1767C53.4942 30.1543 53.1096 30.1429 52.649 30.1429C52.2111 30.1429 51.8619 30.1543 51.6033 30.1767V29.7462V29.7464ZM54.7081 25.167L53.7094 27.5915C54.0002 27.6077 54.3202 27.6155 54.6711 27.6155C55.0378 27.6155 55.3869 27.6078 55.7216 27.5915L54.7082 25.167H54.7081ZM62.0007 30.1769V29.9544C62.1816 29.8465 62.3174 29.7495 62.4129 29.6608C62.4518 29.227 62.4694 28.2656 62.4694 26.7785C62.4694 25.7011 62.4533 24.9381 62.4225 24.4912C62.4065 24.2493 62.3742 24.1075 62.3225 24.0654C62.2529 24.0025 62.0139 23.9623 61.6033 23.9429V23.5461L62.5132 23.5653L63.2083 23.5799C63.42 23.5799 63.7318 23.572 64.1456 23.5559C64.5465 23.5397 64.8342 23.5315 65.0087 23.5315C65.7085 23.5315 66.2114 23.6494 66.5136 23.8849C66.8174 24.1186 66.9677 24.4396 66.9677 24.8462C66.9677 25.2654 66.8189 25.606 66.5183 25.872C66.2191 26.1365 65.7959 26.3252 65.2494 26.4382V26.4769C65.8119 26.5334 66.2063 26.6172 66.4326 26.7317C66.6604 26.8447 66.8431 27.0204 66.9821 27.2608C67.121 27.4994 67.1906 27.7722 67.1906 28.0786C67.1906 28.4528 67.0756 28.8076 66.8479 29.1415C66.6184 29.4753 66.3163 29.7303 65.9379 29.9075C65.5613 30.0835 65.0295 30.1722 64.3442 30.1722C64.2084 30.1722 64.0049 30.1674 63.7332 30.1575C63.4811 30.1479 63.2741 30.1429 63.1142 30.1429C62.9333 30.1429 62.5631 30.1543 62.0006 30.1767L62.0007 30.1769ZM63.8142 26.2784H64.0613C64.5946 26.2784 64.9698 26.1817 65.1848 25.9898C65.4014 25.7977 65.5096 25.4961 65.5096 25.0864C65.5096 24.7283 65.4224 24.4637 65.2461 24.2928C65.0717 24.1233 64.7839 24.0378 64.3832 24.0378C64.2344 24.0378 64.0535 24.0509 63.8383 24.075C63.819 25.0427 63.8094 25.6347 63.8094 25.8526L63.8142 26.2782V26.2784ZM63.8239 29.6382C64.0065 29.685 64.1794 29.7076 64.3394 29.7076C64.7888 29.7076 65.1331 29.5801 65.3723 29.3237C65.6132 29.0673 65.7327 28.6898 65.7327 28.1916C65.7327 27.8672 65.6779 27.6011 65.5694 27.3946C65.4596 27.1883 65.3108 27.035 65.1186 26.9349C64.9279 26.8335 64.6563 26.7833 64.3023 26.7833L63.8239 26.7881V26.9108L63.8142 28.135L63.8239 29.3722V29.6382ZM68.0392 29.7464C68.335 29.7303 68.5174 29.7012 68.587 29.6562C68.6355 29.6254 68.7099 29.5046 68.8101 29.2981C69.0022 28.8884 69.2497 28.3189 69.5486 27.5915L71.2248 23.4944H71.9213L74.0611 28.5687C74.3392 29.2285 74.5106 29.5882 74.5752 29.6511C74.6399 29.7142 74.8403 29.7576 75.1748 29.7786V30.1768C74.6595 30.1544 74.1728 30.143 73.7154 30.143C73.169 30.143 72.6503 30.1544 72.1574 30.1768V29.7786C72.534 29.7639 72.7505 29.7416 72.8087 29.7157C72.8669 29.6883 72.8961 29.6397 72.8961 29.5704C72.8961 29.5107 72.8299 29.3059 72.6972 28.9575L72.3852 28.1494C71.9942 28.1429 71.5561 28.1398 71.0743 28.1398C70.6541 28.1398 70.2711 28.1429 69.9286 28.1494L69.7199 28.6929C69.6617 28.8397 69.5924 29.0607 69.5115 29.3543C69.4921 29.4204 69.4823 29.4799 69.4823 29.5331C69.4823 29.6057 69.5131 29.6573 69.5743 29.6864C69.6359 29.717 69.8588 29.7479 70.2404 29.7785V30.1767C69.93 30.1543 69.5454 30.1429 69.0848 30.1429C68.6467 30.1429 68.2976 30.1543 68.0391 30.1767V29.7462L68.0392 29.7464ZM71.144 25.167L70.1452 27.5915C70.436 27.6077 70.756 27.6155 71.1067 27.6155C71.4736 27.6155 71.8227 27.6078 72.1574 27.5915L71.144 25.167ZM75.6049 30.1769V29.7787C75.9911 29.764 76.2159 29.7383 76.2821 29.7045C76.3274 29.6786 76.3597 29.6382 76.3824 29.5801C76.4162 29.5045 76.4389 29.2382 76.4487 28.7819C76.4664 28.0253 76.476 27.456 76.476 27.072L76.4664 25.072C76.4664 24.543 76.4502 24.2381 76.4147 24.1559C76.3954 24.1091 76.3661 24.0737 76.3256 24.0527C76.261 24.0141 76.0218 23.9785 75.6049 23.943V23.5462C76.1044 23.5623 76.4727 23.5704 76.7137 23.5704C76.9787 23.5704 77.2793 23.5624 77.6172 23.5462C78.3444 24.4721 79.164 25.4769 80.0805 26.5608C80.6897 27.2868 81.215 27.8849 81.6562 28.3576V26.4851C81.6562 25.777 81.6482 25.1656 81.6287 24.6527C81.6159 24.3462 81.59 24.1591 81.5529 24.0897C81.5335 24.0526 81.4995 24.0252 81.4478 24.0092C81.3975 23.993 81.1761 23.972 80.7849 23.9429V23.5461C81.1292 23.5622 81.4719 23.5703 81.813 23.5703C82.28 23.5703 82.7037 23.5623 83.0816 23.5461V23.9429C82.7277 23.9654 82.516 23.9912 82.4432 24.0186C82.4012 24.035 82.369 24.0574 82.3431 24.0847C82.3188 24.1139 82.2994 24.1492 82.2866 24.1944C82.2639 24.2686 82.2525 24.5121 82.2494 24.922L82.2348 26.8125L82.2251 28.7157C82.2251 29.227 82.2363 29.7367 82.2574 30.2465L82.1959 30.3126C81.8145 30.2431 81.5446 30.1979 81.3862 30.1769C80.5747 29.2786 79.5953 28.1512 78.4462 26.793C77.8659 26.1059 77.3971 25.5284 77.0401 25.0591V26.8963C77.0401 27.3981 77.0479 28.0012 77.0642 28.7059C77.0724 29.227 77.0949 29.5256 77.1306 29.6044C77.1418 29.6382 77.1661 29.6656 77.2016 29.685C77.2616 29.7188 77.4879 29.7512 77.8822 29.7787V30.1769C77.3714 30.1545 77.0045 30.1431 76.7848 30.1431C76.6005 30.1431 76.2077 30.1545 75.6049 30.1769ZM83.7025 30.1769V29.7787C84.087 29.7512 84.3036 29.7254 84.3505 29.7045C84.386 29.6884 84.4104 29.6674 84.4266 29.6416C84.4589 29.598 84.4829 29.5045 84.5024 29.3593C84.5381 29.1093 84.5557 28.6495 84.5591 27.9785L84.5639 26.1977C84.5639 25.6301 84.5557 25.1558 84.5381 24.7752C84.5204 24.3946 84.4959 24.172 84.4653 24.109C84.4459 24.0671 84.4136 24.0366 84.3701 24.014C84.3037 23.9834 84.0808 23.959 83.7026 23.9429V23.5461C84.2714 23.5687 84.7774 23.5798 85.2217 23.5798C85.7551 23.5798 86.261 23.5687 86.738 23.5461V23.9429C86.3402 23.9719 86.1108 24.0058 86.0492 24.0478C85.988 24.0881 85.9505 24.1881 85.9377 24.3445C85.9217 24.5428 85.9118 25.3381 85.9088 26.727H85.975C86.2933 26.472 86.7541 26.043 87.3536 25.4429C87.9533 24.843 88.4172 24.3429 88.7454 23.9428L88.7502 23.7686L88.7454 23.5928L88.7872 23.5461C89.1316 23.5687 89.4257 23.5798 89.6681 23.5798C89.925 23.5798 90.2113 23.5687 90.5311 23.5461V23.9429L90.2612 23.9719C90.0463 23.9929 89.9072 24.0171 89.8443 24.043C89.7182 24.0994 89.5485 24.2155 89.3369 24.3929C89.0217 24.654 88.6225 25.0122 88.1392 25.4703L87.2973 26.264L87.732 26.7978C88.2459 27.4268 88.8601 28.143 89.5745 28.943C89.9849 29.4026 90.2305 29.6561 90.313 29.7043C90.3698 29.7352 90.52 29.7608 90.7624 29.7786V30.1768L90.5118 30.1674L89.6682 30.143C89.442 30.143 89.1477 30.1544 88.7873 30.1768C88.532 29.8478 88.1005 29.3235 87.4911 28.6027C87.0352 28.0607 86.6021 27.5687 86.1883 27.1285C86.135 27.0718 86.0963 27.038 86.0753 27.0284C86.0559 27.022 86.0366 27.0186 86.0187 27.0186C85.9702 27.0186 85.9379 27.038 85.9185 27.0766C85.9091 27.101 85.904 27.2268 85.904 27.4543L85.9235 28.8864C85.93 29.3043 85.9477 29.5461 85.9752 29.6092C85.9947 29.6526 86.0254 29.6849 86.0705 29.7042C86.1336 29.7317 86.3567 29.7575 86.7382 29.7785V30.1767C86.2709 30.1543 85.7537 30.1429 85.1848 30.1429C84.897 30.1429 84.404 30.1543 83.7028 30.1767L83.7025 30.1769ZM13.8662 34.9252H91.0942L13.8662 37.9512V34.9252ZM7.71423 39.7068H97.2463L7.71423 43.0019V39.7068ZM104.961 46H0L104.961 42.8395V46ZM52.2617 0L90.4607 17.6237H14.2651L79.6312 15.1862L54.8595 4.31226L14.9789 17.2009L52.2617 0Z"
        fill="#B7B9CC"
    />
</svg>