<svg
    width="137"
    height="31"
    viewBox="0 0 137 31"
    fill="none"
    xmlns="http://www.w3.org/2000/svg"
>
    <path
        fill-rule="evenodd"
        clip-rule="evenodd"
        d="M134.095 11.3876V10.7002H134.675C134.918 10.7002 135.286 10.6752 135.286 11.0139C135.286 11.3264 135.087 11.3951 134.799 11.3876H134.095ZM135.087 11.7638C135.536 11.7326 135.787 11.5489 135.787 11.0814C135.787 10.4915 135.462 10.314 134.794 10.314H133.558V12.8262H134.095V11.7638H134.52L135.087 12.8262H135.705L135.087 11.7638ZM134.532 13.3361C133.502 13.3361 132.791 12.5987 132.791 11.5601C132.791 10.5228 133.502 9.78536 134.532 9.78536C135.544 9.78536 136.274 10.5228 136.274 11.5601C136.274 12.5987 135.543 13.3361 134.532 13.3361ZM134.532 13.8886C135.837 13.8886 136.898 12.8437 136.898 11.5601C136.898 10.2765 135.837 9.23169 134.532 9.23169C133.215 9.23169 132.167 10.2765 132.167 11.5601C132.167 12.845 133.215 13.8886 134.532 13.8886Z"
        fill="#B7B9CC"
    />
    <path
        fill-rule="evenodd"
        clip-rule="evenodd"
        d="M55.2933 12.7581H55.2349C54.8503 13.0705 54.4073 13.1493 53.925 13.1493H51.3052V13.228C52.0185 14.0616 51.9601 14.8178 51.9601 16.0164V27.6923C51.9601 28.9171 52.0185 29.6733 51.3052 30.4819V30.5607H55.9686V30.4819C55.2362 29.6745 55.3123 28.9184 55.2933 27.6923V18.571C55.2933 17.1887 55.2743 15.4952 56.6616 15.4952C58.0299 15.4952 58.2419 17.9711 58.2419 19.3259C58.2419 21.1757 57.9715 23.0792 56.3138 23.0792C56.1031 23.0792 55.9102 23.0267 55.7172 22.9754L56.4115 25.3989L57.2404 25.5026C58.6277 25.5026 59.8031 25.0601 60.7081 23.5479C61.4798 22.2968 61.8454 20.5495 61.8454 18.9347C61.8454 15.5202 60.3997 12.8093 57.7608 12.8093C56.7974 12.8093 55.8531 13.3055 55.2946 14.4003V12.7581"
        fill="#B7B9CC"
    />
    <path
        d="M62.3343 7.9887V8.06744C63.0083 8.97982 62.9511 9.57974 62.9511 10.8821V22.2718C62.9511 23.4716 63.0083 24.2265 62.2949 25.0602V25.1389H66.9393V25.0602C66.2259 24.2265 66.2843 23.4704 66.2843 22.2718V7.57251H66.2259C65.6865 7.85872 65.1661 7.9887 64.4908 7.9887H62.3343Z"
        fill="#B7B9CC"
    />
    <path
        d="M77.0851 23.1319C75.4286 23.0794 75.4858 21.6459 75.4858 19.8999V17.8151C75.4858 16.3028 75.3893 14.7906 74.4259 13.8007C73.6745 13.0445 72.654 12.8096 71.749 12.8096C70.9201 12.8096 70.1103 12.8883 69.3208 13.1745L68.4145 16.1466C69.1279 15.6504 70.0519 15.2867 70.8427 15.2867C71.325 15.2867 72.0752 15.5742 72.0752 16.3816C72.0752 18.5713 66.7759 16.9815 66.7759 21.8034C66.7759 23.0019 67.2772 24.2268 68.0477 24.8529C68.6062 25.3216 69.4541 25.4779 70.109 25.4779L71.0915 25.3991L71.9203 23.1319C71.7858 23.1582 71.669 23.1844 71.5357 23.1844C70.8414 23.1844 70.3604 22.4033 70.3604 21.4909C70.3604 20.631 70.9772 20.2398 71.4583 19.9274L72.0752 19.5362V20.396C72.0752 21.9333 71.9977 23.1319 72.904 24.2793C73.6364 25.1904 74.5414 25.4779 75.5251 25.4779L76.2956 25.3991L77.0851 23.1319Z"
        fill="#B7B9CC"
    />
    <path
        d="M77.0358 24.8779C78.0956 25.1904 79.1936 25.4778 80.2725 25.4778C82.3147 25.4778 85.1859 24.6954 85.1859 21.2034C85.1859 19.8748 84.5309 18.8575 83.7224 18.1551C83.1055 17.6076 82.316 17.3214 81.6217 17.034C81.1584 16.8515 80.5225 16.6428 80.5225 15.8341C80.5225 15.1305 81.2739 15.0005 81.6598 15.0005C82.528 15.0005 83.3949 15.3654 84.126 16.0179V13.307C83.1436 12.9933 82.1409 12.8108 81.1394 12.8108C80.1379 12.8108 79.0971 12.9408 78.2111 13.6444C77.3239 14.3231 76.7857 15.3904 76.7857 16.7978C76.7857 20.3173 81.3907 20.421 81.3907 22.167C81.3907 23.1319 80.5619 23.3131 80.0224 23.3131C78.809 23.3131 77.6323 22.7145 76.6118 21.8796L77.0358 24.8779Z"
        fill="#B7B9CC"
    />
    <path
        d="M85.7356 21.0981C85.7356 22.3229 85.6963 23.574 86.4299 24.4601C87.0455 25.1888 88.0483 25.4762 88.839 25.4762C89.3404 25.4762 89.8596 25.3462 90.3609 25.2938L91.2088 23.0778C90.6884 23.0516 90.1299 23.0253 89.6679 22.6079C89.051 22.0604 89.0701 21.383 89.0701 20.4444V15.5726H89.5524C90.3609 15.5726 90.6313 15.5201 91.1517 16.3287H91.2088V13.1479H89.0701V9.4209H87.7398C87.5863 11.6106 86.237 13.5653 84.5806 13.7478V15.5463H85.7369V21.0981"
        fill="#B7B9CC"
    />
    <path
        d="M95.0097 7.57129H94.9513C94.5274 7.90999 94.1034 7.98748 93.583 7.98748H91.019V8.06622C91.7324 8.87486 91.6753 9.62976 91.6753 10.8546V22.2706C91.6753 23.4954 91.7337 24.2515 91.019 25.0589V25.1377H95.6634V25.0589C94.95 24.2515 95.0275 23.4954 95.0084 22.2706V18.4136C95.0084 17.8399 94.9691 17.11 95.0859 16.5626C95.2204 15.8852 95.6837 15.5202 96.1648 15.5202C96.5887 15.5202 96.9936 15.8064 97.1865 16.3276C97.3795 16.8488 97.3401 17.6049 97.3401 18.1774V22.2693C97.3401 23.4941 97.3985 24.2503 96.6649 25.0577V25.1364H101.347V25.0577C100.615 24.2503 100.672 23.4941 100.672 22.2693V17.9686C100.672 16.7176 100.788 15.3102 100.133 14.3191C99.4192 13.2243 98.4761 12.8081 97.4163 12.8081C96.5684 12.8081 95.6431 13.0418 95.0072 13.9029V7.57129"
        fill="#B7B9CC"
    />
    <path
        fill-rule="evenodd"
        clip-rule="evenodd"
        d="M105.098 16.9803C105.194 15.9379 105.656 15.0768 106.504 15.0768C107.429 15.0768 107.795 15.9629 107.795 16.9803H105.098ZM111.167 21.7234C110.204 22.402 109.008 23.0519 107.931 23.0519C106.216 23.0519 105.099 21.4372 105.099 19.195H111.072C111.014 15.1818 109.549 12.8096 106.505 12.8096C103.827 12.8096 101.785 15.443 101.785 19.0912C101.785 21.046 102.305 23.0007 103.539 24.1993C104.618 25.2679 106.082 25.4766 107.392 25.4766C108.413 25.4766 109.492 25.2154 110.417 24.668L111.167 21.7234Z"
        fill="#B7B9CC"
    />
    <path
        d="M115.489 12.7581H115.431C115.065 13.0455 114.641 13.1493 114.198 13.1493H111.5V13.228C112.213 14.0354 112.156 14.8178 112.156 16.0164V22.2705C112.156 23.4954 112.213 24.2515 111.5 25.0589V25.1376H116.144V25.0589C115.431 24.2515 115.489 23.4691 115.489 22.2705V18.3348C115.489 17.6836 115.431 17.2412 115.759 16.745C116.163 16.1463 116.704 15.8589 117.281 15.8589C117.609 15.8589 117.956 15.9626 118.283 16.0676V12.888L117.569 12.8093C116.587 12.8093 115.777 13.4605 115.489 14.6603V12.7581Z"
        fill="#B7B9CC"
    />
    <path
        fill-rule="evenodd"
        clip-rule="evenodd"
        d="M122.498 12.7581H122.439C122.055 13.0193 121.61 13.1493 121.187 13.1493H118.508V13.228C119.222 14.0354 119.165 14.7915 119.165 16.0164V22.2705C119.165 23.4954 119.223 24.2253 118.508 25.0589V25.1376H123.172V25.0589C122.439 24.2253 122.496 23.4691 122.496 22.2705V18.3611C122.496 17.2924 122.323 15.5202 123.517 15.5202C124.692 15.5202 124.558 17.2662 124.558 18.3611V22.2705C124.558 23.4954 124.616 24.2253 123.903 25.0589V25.1376H128.566V25.0589C127.834 24.2253 127.891 23.4691 127.891 22.2705V17.9699C127.891 16.98 127.833 15.5202 128.951 15.5202C130.05 15.5202 129.952 16.9275 129.952 17.9699V27.7673C129.952 28.9921 130.011 29.722 129.297 30.5557V30.6331H133.961V30.5557C133.228 29.722 133.287 28.9646 133.287 27.7673V17.0325C133.287 15.6777 133.132 14.6865 132.304 13.8004C131.648 13.0968 130.781 12.8093 129.952 12.8093C128.873 12.8093 127.872 13.2267 127.14 14.3216C126.542 13.3305 125.752 12.8093 124.827 12.8093C123.844 12.8093 123.054 13.3055 122.495 14.3216V12.7581"
        fill="#B7B9CC"
    />
    <path
        d="M127.792 27.2146H57.8579V30.5529H127.792V27.2146Z"
        fill="#B7B9CC"
    />
    <path
        fill-rule="evenodd"
        clip-rule="evenodd"
        d="M20.8789 7.77143L26.2023 0.371174C26.2023 0.371174 35.9289 -1.40109 42.759 2.7996C49.5891 7.00028 48.7475 14.6505 43.4635 19.3911C38.1794 24.1317 29.8807 24.3442 29.8807 24.3442C29.8807 24.3442 29.2931 26.8489 29.0202 28.1212C28.8399 28.9586 28.7777 30.0109 28.7574 30.6346H22.6991C23.0786 28.7636 24.6817 22.3395 29.5291 17.7538C35.26 12.3321 40.1366 11.9721 40.1366 11.9721C40.1366 11.9721 35.9873 13.3982 33.7572 15.9803C31.5257 18.5625 30.7819 21.0296 30.7819 21.0296C30.7819 21.0296 38.7671 20.451 40.7637 14.4393C42.7603 8.42634 37.4368 6.69282 31.6438 6.42286C25.8495 6.15289 20.8789 7.77143 20.8789 7.77143Z"
        fill="#B7B9CC"
    />
    <path
        fill-rule="evenodd"
        clip-rule="evenodd"
        d="M40.879 11.1818C40.879 11.1818 32.7771 11.6829 26.6121 17.7334C20.7505 23.4864 18.8872 30.0055 18.7184 30.6341H11.5977C11.8502 29.8455 15.2976 19.5369 24.4988 14.9975C34.0692 10.2756 40.879 11.1818 40.879 11.1818Z"
        fill="#B7B9CC"
    />
    <path
        fill-rule="evenodd"
        clip-rule="evenodd"
        d="M7.5193 30.6348C8.22757 28.9075 11.9821 20.5549 20.2313 15.4606C29.4692 9.75632 40.3115 10.7974 40.3115 10.7974C40.3115 10.7974 27.5513 8.38901 15.3001 14.7094C3.865 20.6086 0.409982 29.4799 0 30.6348H7.5193Z"
        fill="#B7B9CC"
    />
</svg>