<svg width="20" height="20" viewBox="0 0 20 20" fill="none" xmlns="http://www.w3.org/2000/svg">
<g clip-path="url(#clip0_146_27615)">
<path d="M9.71907 0C11.4591 0 13.0655 0.4288 14.5367 1.2864C15.9887 2.124 17.1951 3.3288 18.0327 4.7808C18.8903 6.2528 19.3191 7.8592 19.3191 9.6C19.3191 11.3408 18.8903 12.9472 18.0335 14.4192C17.1959 15.8712 15.9903 17.076 14.5375 17.9136C13.0663 18.7712 11.4599 19.2 9.71987 19.2C7.97907 19.2 6.37267 18.7712 4.90147 17.9136C3.44947 17.0768 2.24307 15.8712 1.40547 14.4192C0.547873 12.9472 0.119873 11.3408 0.119873 9.6C0.119873 7.8592 0.548673 6.2528 1.40627 4.7808C2.26307 3.3088 3.42867 2.144 4.90067 1.2864C6.37187 0.4288 7.97827 0 9.71907 0ZM11.0439 10.7136C9.86547 10.9696 8.67827 11.616 7.48227 12.6528C6.28467 13.6888 5.39907 14.7784 4.82147 15.9176C6.26867 17.0432 7.90067 17.6064 9.71907 17.6064C10.6847 17.6024 11.6415 17.42 12.5415 17.0688C12.2895 14.9 11.7863 12.7672 11.0439 10.7136ZM15.1151 10.3872C14.4095 10.3872 13.6095 10.4192 12.7151 10.4832C13.3671 12.3784 13.8087 14.324 14.0391 16.3208C15.0415 15.6768 15.8871 14.8168 16.5159 13.8048C17.1479 12.8 17.5423 11.664 17.6679 10.4832C16.7335 10.4192 15.8823 10.3872 15.1151 10.3872ZM9.98707 8.1792C7.78707 8.8832 5.40547 9.2352 2.84627 9.2352C2.34707 9.2352 1.97507 9.2296 1.73187 9.216C1.73187 9.268 1.72867 9.3312 1.72227 9.408C1.71507 9.4848 1.71267 9.548 1.71267 9.6C1.71267 11.5968 2.38467 13.3568 3.72867 14.88C4.34307 13.6768 5.31427 12.532 6.64547 11.4432C7.97747 10.3552 9.27747 9.6704 10.5447 9.3888C10.3527 8.9408 10.1671 8.5376 9.98787 8.1792H9.98707ZM15.8039 4.416C14.9719 5.6584 13.5639 6.7144 11.5815 7.584C11.8159 8.0952 12.0335 8.6136 12.2343 9.1392C13.1815 9.0496 14.2119 9.0048 15.3255 9.0048C16.1191 9.0048 16.9063 9.024 17.6855 9.0624C17.5839 7.3216 16.9559 5.7736 15.8039 4.416ZM6.09107 2.4768C5.07827 2.9888 4.19027 3.7168 3.48867 4.608C2.77667 5.496 2.25667 6.5224 1.96227 7.6224C2.24387 7.648 2.65987 7.6608 3.21027 7.6608C5.34787 7.6608 7.37747 7.3728 9.29747 6.7968C8.32307 5.0688 7.25427 3.6296 6.09107 2.4768ZM9.71907 1.5936C9.05667 1.5952 8.39747 1.6848 7.75907 1.8616C8.88547 3.0256 9.92787 4.4792 10.8903 6.22C12.6311 5.4904 13.9431 4.5632 14.8263 3.436C13.3399 2.208 11.6391 1.5936 9.71907 1.5936Z" fill="#C4C4C4"/>
</g>
<defs>
<clipPath id="clip0_146_27615">
<rect width="20" height="19.2" fill="white"/>
</clipPath>
</defs>
</svg>
