<svg
    width="69"
    height="60"
    viewBox="0 0 69 60"
    fill="none"
    xmlns="http://www.w3.org/2000/svg"
>
    <path
        fill-rule="evenodd"
        clip-rule="evenodd"
        d="M26.1825 25.1784C27.1657 23.2966 27.8349 20.8103 24.6599 18.1062L24.4226 17.9047L24.3987 18.2054C24.199 20.6917 22.5808 21.8926 21.6334 22.3866C20.8857 22.7766 20.3002 23.022 19.8308 23.2186C19.3017 23.4412 18.9193 23.6005 18.6172 23.8345C17.494 24.6226 16.8709 25.8398 16.8368 26.6328C16.8265 26.8717 16.7634 27.148 16.6985 27.4388C16.5125 28.2627 16.2803 29.2881 17.1236 30.1348L17.2396 30.2502L17.3523 30.1332C18.7588 28.6804 19.9094 28.0044 20.9745 28.0044H20.9796C21.7495 28.006 22.4681 28.3602 23.1765 29.0915C23.6016 30.0942 23.5333 30.9977 22.9546 32.0166C22.1284 33.471 20.3207 34.2689 17.7466 34.3274C14.3446 33.9536 12.3525 32.0832 11.8285 28.7974C11.9907 26.3972 13.0012 23.4884 19.2709 20.1164C20.6348 19.4891 21.4047 18.4816 21.6949 16.9476C21.9919 15.3778 21.6129 12.9695 19.655 10.9105L19.4775 10.7237L19.3904 10.9625C18.7776 12.6607 17.6391 13.9916 15.9031 15.0316C15.8945 15.0284 15.886 15.0235 15.8775 15.0186C16.0891 14.7976 16.2718 14.5035 16.4356 14.2402C16.55 14.055 16.6593 13.8811 16.7446 13.7901C18.5011 11.9067 19.8121 6.93406 13.5901 0.242131L13.3631 0L13.317 0.320133C12.8561 3.46784 11.9309 6.20766 10.4902 8.69398C9.30215 10.7448 7.92803 12.6526 6.59829 14.497C3.37551 18.9659 0.331956 23.1877 0.024699 29.033C-0.192088 33.159 1.02158 36.8348 3.53255 39.6559C6.3798 43.0425 10.0703 44.8902 14.8123 45.3062C15.1912 45.3387 15.5685 45.3566 15.9457 45.3566C20.9199 45.3566 25.8189 42.5404 28.1404 38.234C30.4739 33.9098 29.7586 29.1565 26.1825 25.1784Z"
        fill="#B7B9CC"
    />
    <path
        fill-rule="evenodd"
        clip-rule="evenodd"
        d="M44.428 28.3831V39.4935C44.428 40.7529 44.3853 41.6369 44.2982 42.1488C44.2112 42.6591 43.9568 43.1823 43.5318 43.7186C43.1068 44.2565 42.5486 44.6628 41.8538 44.9406C41.1608 45.2185 40.3432 45.3566 39.4009 45.3566C38.3579 45.3566 37.4379 45.1925 36.639 44.8643C35.8418 44.536 35.2444 44.107 34.8484 43.5805C34.4541 43.054 34.2202 42.4966 34.1485 41.9116C34.0768 41.3265 34.041 40.0964 34.041 38.2195V28.3831H38.5816V40.8488C38.5816 41.5735 38.6225 42.0383 38.7062 42.2398C38.7881 42.4413 38.9554 42.5437 39.208 42.5437C39.4948 42.5437 39.6808 42.4316 39.7628 42.2106C39.8447 41.9879 39.8857 41.463 39.8857 40.6343V28.3847H44.428V28.3831ZM56.3256 28.3831V45.0073H52.345L49.9825 37.4508V45.0073H46.1862V28.3831H49.9825L52.5276 35.868V28.3831H56.3256ZM68.5664 34.503H64.0259V32.9933C64.0259 32.0427 63.9815 31.4463 63.8961 31.2058C63.8108 30.9669 63.6042 30.8466 63.2816 30.8466C63.0017 30.8466 62.8105 30.949 62.7098 31.1554C62.6091 31.3602 62.5596 31.8883 62.5596 32.7366V40.7139C62.5596 41.4598 62.6091 41.9506 62.7098 42.1878C62.8105 42.4251 63.0119 42.5421 63.314 42.5421C63.6452 42.5421 63.8688 42.4088 63.9883 42.1423C64.1061 41.8758 64.1658 41.3542 64.1658 40.5806V38.6095H63.2492V36.0842H68.5664V45.0073H65.7141L65.2941 43.8161C64.9852 44.3296 64.5943 44.7148 64.1232 44.9715C63.652 45.2283 63.0973 45.3566 62.4554 45.3566C61.6924 45.3566 60.9789 45.1811 60.3132 44.8285C59.6474 44.4759 59.1422 44.0404 58.7974 43.5187C58.4525 42.9987 58.2358 42.4527 58.1504 41.8807C58.0634 41.3103 58.0207 40.4523 58.0207 39.3082V34.3697C58.0207 32.7821 58.1112 31.6283 58.2904 30.9084C58.4696 30.1901 58.9868 29.5304 59.8386 28.9323C60.6904 28.3327 61.7931 28.0337 63.1451 28.0337C64.4748 28.0337 65.5792 28.2937 66.4566 28.8137C67.334 29.3337 67.9058 29.9512 68.1721 30.6663C68.4384 31.3813 68.5716 32.4213 68.5716 33.7831V34.503H68.5664ZM6.79239 55.6367C6.79239 56.6393 6.76508 57.3495 6.71216 57.7671C6.6729 58.1864 6.51244 58.5796 6.24615 58.9209C5.99352 59.2638 5.63335 59.5303 5.19294 59.7204C4.74059 59.9105 4.21996 59.9999 3.63447 59.9999C3.06092 59.9999 2.55565 59.9105 2.11525 59.7334C1.6629 59.5563 1.30273 59.3028 1.03644 58.9469C0.756492 58.591 0.596035 58.2107 0.543119 57.8045C0.490202 57.3852 0.462891 56.6621 0.462891 55.635V53.9092C0.462891 52.9066 0.490202 52.1965 0.543119 51.7788C0.58238 51.3482 0.742836 50.9663 1.00913 50.625C1.26176 50.2822 1.62193 50.0156 2.07599 49.8255C2.51639 49.6354 3.03532 49.546 3.63447 49.546C4.19436 49.546 4.70133 49.6354 5.14003 49.8125C5.59238 49.9896 5.95255 50.2432 6.2325 50.599C6.49879 50.9549 6.65924 51.3352 6.71216 51.7414C6.76508 52.1607 6.79239 52.8838 6.79239 53.9109V55.6367ZM4.04756 52.3378C4.04756 51.8682 4.02025 51.5773 3.96733 51.4376C3.91441 51.3108 3.80687 51.2474 3.64812 51.2474C3.50132 51.2474 3.39549 51.2978 3.31526 51.4002C3.24869 51.5139 3.20943 51.8194 3.20943 52.3395V57.0212C3.20943 57.6046 3.23674 57.9605 3.28966 58.1002C3.32892 58.24 3.45011 58.3034 3.62252 58.3034C3.80858 58.3034 3.92807 58.227 3.96904 58.0629C4.02195 57.9101 4.04926 57.5428 4.04926 56.9465V52.3378H4.04756ZM7.51273 52.9976V52.0973C7.51273 51.6277 7.57931 51.2344 7.68685 50.9435C7.80634 50.6397 8.01971 50.3845 8.29965 50.17C8.59326 49.9669 8.91246 49.8141 9.27264 49.7508V50.4739C9.02 50.6137 8.8732 50.8038 8.83223 51.0313H9.27264V52.9976H7.51273ZM14.6411 49.7491V51.7528L12.6166 57.7801H14.6428V59.7838H9.59184V58.3245L11.7102 51.7528H9.84447V49.7491H14.6411ZM20.8648 49.7491V51.7528H19.2517V59.7822H16.5068V51.7528H14.8818V49.7491H20.8648ZM21.4912 49.7491H23.4372C24.7294 49.7491 25.5965 49.7995 26.0625 49.8889C26.5149 49.9896 26.8887 50.2318 27.1823 50.625C27.4623 51.0053 27.6091 51.6277 27.6091 52.4906C27.6091 53.2641 27.5032 53.7971 27.3035 54.0636C27.1038 54.3301 26.7044 54.4943 26.1035 54.5463C26.6361 54.673 27.0099 54.8388 27.196 55.0533C27.382 55.2694 27.5015 55.4725 27.5425 55.6497C27.5817 55.8268 27.6091 56.3224 27.6091 57.1333V59.7854H25.0639V56.4492C25.0639 55.9032 25.0247 55.5733 24.9308 55.4465C24.8506 55.3198 24.6116 55.2564 24.2378 55.2564V59.7854H21.4929V49.7491H21.4912ZM24.2361 51.4619V53.6947C24.5416 53.6947 24.755 53.6574 24.8762 53.568C24.9957 53.4916 25.0622 53.2251 25.0622 52.7945V52.2371C25.0622 51.9202 25.0093 51.7041 24.8898 51.6147C24.7686 51.5123 24.5553 51.4619 24.2361 51.4619ZM33.4009 49.7491L34.973 59.7838H32.1616L32.0148 57.9816H31.0281L30.8813 59.7838H28.0426L29.4287 49.7491H33.4009ZM31.9482 56.2071C31.8151 55.0647 31.6819 53.6574 31.5351 51.9819C31.2552 53.9109 31.0828 55.3182 31.0162 56.2071H31.9482ZM41.5568 49.7491V59.7838H39.1585L37.7332 55.2174V59.7838H35.4407V49.7491H37.7332L39.2661 54.2651V49.7491H41.5568ZM48.4582 52.7945H45.913V52.0453C45.913 51.7024 45.8857 51.4879 45.8192 51.3856C45.7526 51.2962 45.6451 51.2458 45.5 51.2458C45.3258 51.2458 45.2064 51.3092 45.1261 51.4359C45.0322 51.5627 44.993 51.7528 44.993 52.0193C44.993 52.3492 45.0459 52.6027 45.1398 52.7685C45.2337 52.9326 45.4863 53.1487 45.913 53.3892C47.125 54.075 47.8983 54.6454 48.2055 55.089C48.5247 55.5327 48.6852 56.2428 48.6852 57.2195C48.6852 57.9296 48.5913 58.4626 48.4189 58.8055C48.2465 59.1354 47.9119 59.4263 47.4067 59.6554C46.8997 59.8829 46.3142 59.9983 45.6468 59.9983C44.9145 59.9983 44.288 59.8715 43.7674 59.605C43.2604 59.3385 42.9139 58.9956 42.7551 58.591C42.5947 58.1847 42.5144 57.6013 42.5144 56.8522V56.1924H45.0596V57.4096C45.0596 57.7899 45.0988 58.032 45.1654 58.1327C45.232 58.2465 45.3651 58.2969 45.5512 58.2969C45.7236 58.2969 45.8584 58.2335 45.9506 58.0937C46.0445 57.954 46.0837 57.7508 46.0837 57.4843C46.0837 56.901 46.0035 56.5077 45.8311 56.3306C45.6587 56.1534 45.232 55.8479 44.5526 55.4173C43.8732 54.9867 43.4209 54.6681 43.2075 54.478C42.9804 54.2879 42.7944 54.0214 42.6476 53.6785C42.5144 53.3356 42.4342 52.892 42.4342 52.359C42.4342 51.5984 42.5401 51.0264 42.7415 50.6722C42.9548 50.3163 43.2877 50.0384 43.7401 49.8483C44.2061 49.6451 44.7523 49.5444 45.4061 49.5444C46.1128 49.5444 46.7256 49.6581 47.2189 49.8743C47.7259 50.0904 48.0587 50.3683 48.2175 50.6982C48.3779 51.0281 48.4564 51.5984 48.4564 52.398V52.7945H48.4582ZM55.8204 53.4542H53.0756V52.541C53.0756 51.9706 53.0482 51.6017 52.9953 51.4619C52.9561 51.3222 52.8212 51.2458 52.6351 51.2458C52.4747 51.2458 52.3552 51.3092 52.3023 51.4359C52.2357 51.5497 52.2084 51.8666 52.2084 52.3866V57.1951C52.2084 57.6387 52.2357 57.9442 52.3023 58.0824C52.3552 58.2221 52.4764 58.2985 52.6488 58.2985C52.8485 58.2985 52.9817 58.2221 53.0482 58.058C53.1148 57.8939 53.1541 57.5753 53.1541 57.1187V55.9259H52.6215V54.4033H55.8204V59.7822H54.1014L53.8488 59.059C53.6628 59.3759 53.4221 59.605 53.1421 59.7562C52.8485 59.9203 52.5157 59.9967 52.1299 59.9967C51.6775 59.9967 51.2508 59.8959 50.8514 59.6798C50.4519 59.4636 50.1447 59.1971 49.9313 58.8803C49.7316 58.5764 49.5984 58.2465 49.5455 57.9036C49.4926 57.5493 49.4653 57.0407 49.4653 56.3436V53.3632C49.4653 52.4126 49.5182 51.7138 49.6257 51.2832C49.7316 50.8395 50.0525 50.4463 50.5578 50.0904C51.0767 49.7231 51.7441 49.5444 52.5566 49.5444C53.3555 49.5444 54.0229 49.6971 54.5419 50.014C55.0744 50.3309 55.4209 50.6998 55.5814 51.1304C55.7419 51.5611 55.8204 52.1965 55.8204 53.0203V53.4542ZM61.6173 49.7491L63.1894 59.7838H60.378L60.2312 57.9816H59.2446L59.0978 59.7838H56.2591L57.6451 49.7491H61.6173ZM60.1647 56.2071C60.0315 55.0647 59.8984 53.6574 59.7516 51.9819C59.4716 53.9109 59.2992 55.3182 59.2326 56.2071H60.1647ZM68.5733 49.7491V51.7528L66.5471 57.7785H68.5733V59.7822H63.5223V58.3229L65.6407 51.7512H63.7749V49.7475H68.5733V49.7491Z"
        fill="#B7B9CC"
    />
</svg>