<svg
  width="155"
  height="30"
  viewBox="0 0 155 30"
  fill="none"
  xmlns="http://www.w3.org/2000/svg"
>
  <path
    fill-rule="evenodd"
    clip-rule="evenodd"
    d="M105.565 15.5606C105.837 15.3995 106.573 15.1421 106.879 15.0374C108.025 14.6335 109.443 13.8916 109.986 12.7886C110.934 10.8872 110.055 9.1522 108.36 7.98227C106.957 7.01222 104.956 6.42307 102.728 6.34249C100.455 6.25669 97.8271 6.0903 95.5835 6.34773V22.0831C99.0365 22.0925 105.549 22.4442 108.014 21.3841C111.504 19.8825 111.524 16.2638 105.565 15.5606ZM102.518 7.00385C106.307 8.14971 106.316 12.7133 103.926 14.5529C102.879 15.3566 100.423 15.6988 99.8695 15.3942C99.9783 12.9414 99.9087 9.85646 99.9087 7.3408C99.9087 7.07501 99.8934 6.87932 99.8293 6.73282C100.754 6.69515 101.638 6.73805 102.518 7.00385ZM105.2 20.21C105.076 20.5574 105.091 20.5187 104.834 20.7615C104.479 21.089 104.226 21.2229 103.668 21.3558C102.656 21.6028 101.391 21.5599 100.19 21.5411C99.9783 21.5034 100.023 21.337 100.002 20.4622C99.9924 19.8825 99.9087 19.4974 99.913 19.0118C99.9282 18.2887 99.8195 16.492 99.888 15.9792C101.316 15.8076 103.436 15.5994 104.576 16.5066C105.491 17.2245 105.521 19.3205 105.2 20.21Z"
    fill="#B7B9CC"
  />
  <path
    fill-rule="evenodd"
    clip-rule="evenodd"
    d="M59.2679 9.83782C59.841 9.18693 60.2706 8.77777 60.8492 8.107L62.3663 6.36257L61.368 6.33432L55.6127 12.6569L53.3343 9.37215C52.934 8.76835 52.598 8.22629 52.1836 7.68005C51.5953 6.90568 51.4767 6.25898 50.8394 6.25898C50.2315 6.25898 47.0994 6.17317 46.7046 6.34897L52.9101 15.609L47.0798 21.9933C47.8704 22.4977 48.3196 21.8793 48.6306 21.4942C49.5148 20.3965 51.6594 18.2711 52.6665 17.0593C52.983 16.6837 53.17 16.6408 53.2842 16.2986C53.5605 16.3844 53.4278 16.3038 53.6301 16.5937L57.3255 22.0844H61.9302L56.0118 13.3131C56.3228 13.1331 58.7383 10.4416 59.2679 9.83782Z"
    fill="#B7B9CC"
  />
  <path
    fill-rule="evenodd"
    clip-rule="evenodd"
    d="M148.803 22.4288L145.953 20.3851C145.533 20.1141 143.122 18.422 142.964 18.175C143.641 17.7847 144.264 17.4007 144.921 17.0009C145.391 16.7152 146.59 16.1355 146.818 15.7127C146.58 15.5987 146.423 15.4469 146.145 15.2994C145.933 15.4846 145.662 15.6039 145.409 15.7556C145.176 15.8938 144.98 16.0309 144.727 16.1878L141.195 18.3037C140.913 18.4701 140.76 18.5465 140.513 18.7317L140.424 7.16118C140.424 6.03416 140.745 6.2581 137.696 6.2581C137.291 6.2581 136.945 6.15346 136.945 6.52913V22.0835H140.423V19.7353L143.476 21.7696C146.919 24.1942 145.867 24.1848 148.342 22.9196C148.496 22.8432 148.515 22.8244 148.649 22.7626C148.787 22.6957 148.857 22.6821 148.975 22.6245C148.898 22.5105 148.922 22.5387 148.803 22.4288Z"
    fill="#B7B9CC"
  />
  <path
    fill-rule="evenodd"
    clip-rule="evenodd"
    d="M93.2329 15.4797H90.0409L90.0355 16.6591C89.2198 16.1317 89.3242 15.8983 87.8811 15.5655C87.0556 15.3751 85.7669 15.4756 85.0056 15.7037C83.3362 16.2028 82.0464 17.3769 82.0464 19.1883C82.0464 19.6352 82.3476 20.239 82.5554 20.5142C82.7979 20.8323 83.1829 21.1703 83.5287 21.3796C85.4602 22.5391 88.0246 22.5726 90.0398 21.5408V25.6104H93.2318C93.4786 25.6104 93.5134 25.5769 93.5178 25.3394V15.7508C93.5189 15.5362 93.4601 15.4797 93.2329 15.4797ZM87.793 21.6213C87.0763 21.5837 86.6271 21.298 86.2313 20.8658C85.4798 20.0485 85.5244 19.3683 85.5244 18.3753C85.5244 17.9138 85.9735 17.13 86.2106 16.8631C87.011 15.9642 88.7652 15.936 89.57 17.0149C90.1725 17.8227 90.2269 18.4129 90.2269 19.3725C90.2291 20.4619 89.2796 21.7071 87.793 21.6213Z"
    fill="#B7B9CC"
  />
  <path
    fill-rule="evenodd"
    clip-rule="evenodd"
    d="M79.7017 6.25684H76.787C76.5695 6.25684 76.5054 6.31858 76.5054 6.52787V22.0822H79.9834V6.52787C79.9834 6.31858 79.9137 6.25684 79.7017 6.25684Z"
    fill="#B7B9CC"
  />
  <path
    fill-rule="evenodd"
    clip-rule="evenodd"
    d="M133.737 16.0411C132.304 15.4227 129.814 15.3421 128.371 16.0129C128.188 16.0987 128.233 16.1364 127.945 16.1646L127.92 15.4803C127.298 15.4803 126.671 15.4803 126.043 15.4803C125.204 15.4803 124.442 15.3233 124.442 15.7513C124.442 17.2864 124.378 20.7711 124.462 22.0833H127.926L127.92 18.3758C127.92 17.7678 127.95 17.2393 128.231 16.8637C128.805 16.1029 130.835 15.9888 131.245 16.9871C131.511 17.6474 131.398 21.2231 131.398 22.0927L134.876 22.0833V17.3816C134.877 16.7726 134.265 16.2735 133.737 16.0411Z"
    fill="#B7B9CC"
  />
  <path
    fill-rule="evenodd"
    clip-rule="evenodd"
    d="M118.638 22.0037C118.397 22.0885 119.169 21.8625 118.638 22.0037V22.0037Z"
    fill="#B7B9CC"
  />
  <path
    fill-rule="evenodd"
    clip-rule="evenodd"
    d="M118.146 15.4802C117.701 15.4802 116.362 15.8507 116.051 16.0076C115.666 16.2023 115.459 16.535 116.076 16.4116C118.423 15.9407 119.086 15.9794 119.086 18.3747C117.263 17.7897 114.091 17.6757 112.944 18.8927C112.519 19.3448 112.505 19.71 112.505 20.2761C112.505 22.1681 116.931 22.4632 118.627 22.0069C118.631 22.0059 118.634 22.0048 118.639 22.0038C118.667 21.9933 118.709 21.9797 118.77 21.9598L118.891 21.9065C118.66 21.7045 119.371 22.0864 118.899 21.9033L118.891 21.9065C118.924 21.9347 118.976 21.9755 119.052 22.031C119.462 22.3261 121.537 22.1785 122.268 22.1733L122.376 21.0892C122.558 17.2623 122.311 15.4844 118.146 15.4802ZM118.294 21.5036C115.764 22.0697 115.315 19.8973 116.085 19.1072C116.436 18.7504 116.95 18.4657 117.577 18.4657C118.096 18.4657 118.763 18.7985 119.079 19.0172L119.085 21.1802C118.739 21.2943 118.694 21.4178 118.294 21.5036Z"
    fill="#B7B9CC"
  />
  <path
    fill-rule="evenodd"
    clip-rule="evenodd"
    d="M73.2618 16.1589C72.1003 15.4033 70.2623 15.2987 68.7909 15.7497C68.0644 15.9736 67.7881 15.9778 67.7588 16.477C68.1981 16.4435 68.2134 16.2824 68.9888 16.2154C71.2813 16.0155 71.079 16.8903 71.0486 18.3732C69.1563 17.5036 64.5266 17.7694 64.4679 20.0035C64.4189 21.9719 67.5065 22.1759 69.0769 22.1759C69.6348 22.1759 70.7125 22.0713 71.0084 21.8526L71.0475 22.1707H74.3384C74.3395 19.9721 74.7745 17.1436 73.2618 16.1589ZM71.0486 21.1797C69.4869 22.0169 67.7577 21.5931 67.7577 19.9156C67.7577 18.7174 69.7783 17.8761 71.0584 19.0073L71.0486 21.1797Z"
    fill="#B7B9CC"
  />
  <path
    fill-rule="evenodd"
    clip-rule="evenodd"
    d="M153.966 15.4742L151.14 15.4794V21.4504V22.0825H154.618V15.7504C154.618 15.403 154.316 15.47 153.966 15.4742Z"
    fill="#B7B9CC"
  />
  <path
    fill-rule="evenodd"
    clip-rule="evenodd"
    d="M152.929 13.6072C154.683 13.5496 155.117 11.5247 153.922 10.6311C153.906 10.6217 153.882 10.6028 153.867 10.5934C152.855 9.8996 151.14 10.5557 151.14 11.7727C151.14 12.8893 151.763 13.6448 152.929 13.6072Z"
    fill="#B7B9CC"
  />
  <path
    d="M24.8455 15.4996C22.0299 20.3153 22.2028 25.1666 22.3235 30.0001C21.1272 27.384 18.2115 17.6971 21.9092 12.9881C25.2403 8.74684 30.727 7.16775 37.2435 5.24438C33.3284 7.54656 27.7819 10.4766 24.8455 15.4996Z"
    fill="#B7B9CC"
  />
  <path
    d="M12.398 15.4996C15.2136 20.3153 15.0407 25.1666 14.92 30.0001C16.1163 27.384 19.032 17.6971 15.3344 12.9881C12.0032 8.74684 6.51656 7.16775 0 5.24438C3.91516 7.54656 9.46163 10.4766 12.398 15.4996Z"
    fill="#B7B9CC"
  />
  <path
    d="M18.0971 5.20084C12.3549 5.13805 8.0754 2.56902 3.78613 0.0502294C5.54252 2.35555 12.8019 9.63044 18.8889 8.90421C24.3722 8.25018 28.5364 4.46832 33.5272 0C29.4968 2.11068 24.0862 5.26676 18.0971 5.20084Z"
    fill="#B7B9CC"
  />
</svg> 