<svg width="20" height="20" viewBox="0 0 20 20" fill="none" xmlns="http://www.w3.org/2000/svg">
<g clip-path="url(#clip0_22_61)">
<path fill-rule="evenodd" clip-rule="evenodd" d="M19.9998 18.8961C19.9998 19.5058 19.5056 20 18.8961 20H13.7997V12.2551H16.3993L16.7886 9.23667H13.7997V7.30962C13.7997 6.43572 14.0423 5.84018 15.2954 5.84018L16.8937 5.83948V3.1398C16.6173 3.10302 15.6686 3.02083 14.5647 3.02083C12.2602 3.02083 10.6826 4.42748 10.6826 7.01068V9.23667H8.07627V12.2551H10.6826V20H1.10384C0.494027 20 0 19.5057 0 18.8961V1.10384C0 0.494104 0.494104 0 1.10384 0H18.8961C19.5057 0 19.9998 0.494104 19.9998 1.10384V18.8961Z" fill="#B7B9CC"/>
</g>
<defs>
<clipPath id="clip0_22_61">
<rect width="20" height="20" fill="white"/>
</clipPath>
</defs>
</svg>
