<svg width="173" height="49" viewBox="0 0 173 49" fill="none" xmlns="http://www.w3.org/2000/svg">
<path d="M24.1255 0C16.569 0 9.84433 3.46208 5.40745 8.88601H13.5186C16.5228 6.78568 20.1739 5.56241 24.1255 5.56241C28.0771 5.56241 31.7283 6.78568 34.7325 8.88601H42.8436C38.4299 3.46208 31.6821 0 24.1255 0ZM47.1188 16.7565L42.6819 23.8884C42.6819 23.9576 42.6819 24.0499 42.6819 24.1192C42.6819 31.4819 38.3836 37.8521 32.1443 40.8295L27.7305 47.9383C39.3542 46.2073 48.2742 36.1903 48.2742 24.1192C48.2511 21.5341 47.8582 19.0645 47.1188 16.7565ZM15.8526 40.691C9.775 37.6675 5.59232 31.4126 5.56921 24.1653L1.08611 16.9411C0.392849 19.203 0 21.6034 0 24.0961C0 36.1211 8.80444 46.0688 20.3357 47.8921L15.8526 40.691Z" fill="white"/>
<path d="M21.2138 45.007L21.0752 44.7301L23.2243 41.3834L7.20993 15.5793H2.95792H2.8886L1.87181 13.8021L0.300415 11.0786H14.3274L14.3736 11.194L16.9156 15.5793H12.5018L25.928 37.1827L28.2389 33.5591L30.8733 37.7828L23.6634 49L21.2138 45.007Z" fill="white"/>
<path d="M48.1357 11.0786L35.2872 31.7819L32.6528 36.0287L29.9953 31.7819L17.1469 11.0786H22.4388L32.6528 27.512L42.8438 11.0786H48.1357Z" fill="white"/>
<path d="M66.7539 21.2341V8.23975H69.1572V21.2341H66.7539Z" fill="white"/>
<path d="M72.5542 21.2341V8.23975H74.6109L81.8901 17.1027V8.23975H84.3166V21.2341H82.3061L74.9575 12.2558V21.2341H72.5542Z" fill="white"/>
<path d="M87.1357 14.7485C87.1357 10.9172 90.0474 8.05518 93.9759 8.05518C96.1019 8.05518 97.812 8.77067 99.1292 10.1555L97.5578 11.6557C96.6797 10.7325 95.5935 10.2017 94.0915 10.2017C91.5495 10.2017 89.6777 12.0481 89.6777 14.7255C89.6777 17.472 91.5957 19.2954 94.0915 19.2954C95.5011 19.2954 96.7028 18.7645 97.6271 17.8182L99.1985 19.2954C97.9506 20.7033 96.1482 21.465 94.0915 21.465C90.1168 21.4419 87.1357 18.5568 87.1357 14.7485Z" fill="white"/>
<path d="M100.493 14.7485C100.493 10.871 103.381 8.05518 107.402 8.05518C111.4 8.05518 114.289 10.8479 114.289 14.7485C114.289 18.6261 111.4 21.4419 107.379 21.4419C103.381 21.4419 100.493 18.6491 100.493 14.7485ZM111.77 14.7485C111.77 12.025 109.967 10.2247 107.402 10.2247C104.814 10.2247 103.011 12.025 103.011 14.7485C103.011 17.472 104.814 19.2723 107.402 19.2723C109.967 19.2723 111.77 17.472 111.77 14.7485Z" fill="white"/>
<path d="M117.108 20.9944V8H119.164L126.444 16.8629V8H128.87V20.9944H126.86L119.511 12.016V20.9944H117.108Z" fill="white"/>
<path d="M71.029 40.1833L65.3673 27.189H67.9324L72.1844 37.3675H72.2537L76.5288 27.189H79.0477L73.4092 40.1833H71.029Z" fill="white"/>
<path d="M83.4614 38.0599H91.4801V40.1833H81.1042V27.189H91.2952V29.3124H83.4614V32.4283H90.4633V34.5517H83.4614V38.0599Z" fill="white"/>
<path d="M94.1147 40.1833V27.189H96.1714L103.451 36.0519V27.189H105.877V40.1833H103.867L96.5181 31.205V40.1833H94.1147Z" fill="white"/>
<path d="M119.118 27.189V29.3124H114.843V40.1833H112.417V29.3124H108.165V27.189H119.118Z" fill="white"/>
<path d="M120.99 34.7363V27.189H123.417V34.2978C123.417 36.6289 124.688 37.8753 126.767 37.8753C128.87 37.8753 130.141 36.6058 130.141 34.2978V27.189H132.521V34.7363C132.521 38.2215 130.326 40.391 126.767 40.391C123.232 40.391 120.99 38.2215 120.99 34.7363Z" fill="white"/>
<path d="M143.637 40.1833L139.985 35.8442H137.952V40.1833H135.548V27.189H140.91C144.399 27.189 146.479 28.7584 146.479 31.5281C146.479 33.7208 145.162 35.1518 142.851 35.6595L146.664 40.1833H143.637ZM137.929 29.2893V33.7208H140.817C142.874 33.7208 144.076 33.1668 144.076 31.5512C144.076 29.9817 142.897 29.2893 140.84 29.2893H137.929Z" fill="white"/>
<path d="M151.286 38.0599H159.305V40.1833H148.929V27.189H159.12V29.3124H151.286V32.4283H158.288V34.5517H151.286V38.0599Z" fill="white"/>
<path d="M160.945 38.5217L162.031 36.6753C163.418 37.6216 164.92 38.1986 166.537 38.1986C168.178 38.1986 169.033 37.5293 169.033 36.6753C169.033 35.5674 168.155 35.2212 166.121 34.7827C163.14 34.1595 161.315 33.0516 161.315 30.7436C161.315 28.297 163.51 26.9814 166.353 26.9814C168.201 26.9814 169.68 27.5123 171.09 28.5278L169.796 30.282C168.894 29.6357 167.577 29.1741 166.214 29.1741C164.712 29.1741 163.834 29.6819 163.834 30.7897C163.834 31.736 164.642 32.2438 166.745 32.7054C169.934 33.3978 171.552 34.2518 171.552 36.5368C171.552 38.9603 169.403 40.4143 166.376 40.4143C164.25 40.3913 162.332 39.6296 160.945 38.5217Z" fill="white"/>
</svg>
