<svg width="151" height="43" viewBox="0 0 151 43" fill="none" xmlns="http://www.w3.org/2000/svg">
<g clip-path="url(#clip0_11_76)">
<path d="M21.1714 0C14.5401 0 8.6389 3.03815 4.74531 7.79793H11.8633C14.4996 5.95478 17.7037 4.8813 21.1714 4.8813C24.6391 4.8813 27.8432 5.95478 30.4795 7.79793H37.5975C33.7242 3.03815 27.8027 0 21.1714 0ZM41.3491 14.7047L37.4555 20.9633C37.4555 21.024 37.4555 21.105 37.4555 21.1658C37.4555 27.6269 33.6836 33.2171 28.2082 35.83L24.3349 42.0683C34.5353 40.5492 42.3631 31.7588 42.3631 21.1658C42.3428 18.8973 41.998 16.7301 41.3491 14.7047ZM13.9115 35.7084C8.57806 33.0551 4.90755 27.5662 4.88727 21.2063L0.953118 14.8667C0.344745 16.8516 0 18.9581 0 21.1455C0 31.6981 7.72634 40.4277 17.8456 42.0278L13.9115 35.7084Z" fill="#080F20"/>
<path d="M18.6163 39.496L18.4946 39.2529L20.3806 36.3161L6.32716 13.6717H2.5958H2.53496L1.64268 12.1121L0.263702 9.72209H12.5731L12.6137 9.82336L14.8444 13.6717H10.9711L22.7532 32.6298L24.7811 29.4498L27.093 33.1564L20.7659 43L18.6163 39.496Z" fill="#080F20"/>
<path d="M42.2415 9.72208L30.9663 27.8902L28.6545 31.617L26.3224 27.8902L15.0472 9.72208H19.6911L28.6545 24.1432L37.5976 9.72208H42.2415Z" fill="#080F20"/>
<path d="M58.5799 18.6137V7.21054H60.6889V18.6137H58.5799Z" fill="#080F20"/>
<path d="M63.6699 18.6137V7.21054H65.4748L71.8627 14.9882V7.21054H73.992V18.6137H72.2277L65.7789 10.7348V18.6137H63.6699Z" fill="#080F20"/>
<path d="M76.4661 12.9223C76.4661 9.56008 79.0212 7.04854 82.4687 7.04854C84.3344 7.04854 85.835 7.67642 86.9909 8.89169L85.6119 10.2082C84.8413 9.39804 83.8882 8.93219 82.5701 8.93219C80.3394 8.93219 78.6968 10.5525 78.6968 12.902C78.6968 15.3123 80.3799 16.9124 82.5701 16.9124C83.8071 16.9124 84.8616 16.4466 85.6728 15.6161L87.0518 16.9124C85.9567 18.1479 84.3749 18.8163 82.5701 18.8163C79.0821 18.7961 76.4661 16.2643 76.4661 12.9223Z" fill="#080F20"/>
<path d="M88.1874 12.9223C88.1874 9.51957 90.7223 7.04854 94.2508 7.04854C97.7591 7.04854 100.294 9.49932 100.294 12.9223C100.294 16.325 97.7591 18.7961 94.2306 18.7961C90.7223 18.7961 88.1874 16.3453 88.1874 12.9223ZM98.0836 12.9223C98.0836 10.5323 96.5018 8.95245 94.2508 8.95245C91.9796 8.95245 90.3978 10.5323 90.3978 12.9223C90.3978 15.3123 91.9796 16.8922 94.2508 16.8922C96.5018 16.8922 98.0836 15.3123 98.0836 12.9223Z" fill="#080F20"/>
<path d="M102.768 18.6137V7.21054H104.573L110.961 14.9882V7.21054H113.09V18.6137H111.326L104.877 10.7348V18.6137H102.768Z" fill="#080F20"/>
<path d="M62.3315 35.2426L57.3631 23.8393H59.6141L63.3455 32.7715H63.4063L67.1579 23.8393H69.3683L64.4202 35.2426H62.3315Z" fill="#080F20"/>
<path d="M73.2415 33.3792H80.2784V35.2426H71.173V23.8393H80.1161V25.7027H73.2415V28.4371H79.3861V30.3005H73.2415V33.3792Z" fill="#080F20"/>
<path d="M82.5904 35.2426V23.8393H84.3953L90.7832 31.617V23.8393H92.9125V35.2426H91.1482L84.6995 27.3636V35.2426H82.5904Z" fill="#080F20"/>
<path d="M104.532 23.8393V25.7027H100.781V35.2426H98.6515V25.7027H94.9201V23.8393H104.532Z" fill="#080F20"/>
<path d="M106.175 30.4625V23.8393H108.304V30.0777C108.304 32.1234 109.42 33.2171 111.245 33.2171C113.09 33.2171 114.206 32.1031 114.206 30.0777V23.8393H116.294V30.4625C116.294 33.5209 114.368 35.4248 111.245 35.4248C108.142 35.4248 106.175 33.5209 106.175 30.4625Z" fill="#080F20"/>
<path d="M126.048 35.2426L122.844 31.4347H121.06V35.2426H118.951V23.8393H123.655C126.718 23.8393 128.543 25.2166 128.543 27.6472C128.543 29.5713 127.387 30.8271 125.359 31.2727L128.705 35.2426H126.048ZM121.039 25.6825V29.5713H123.574C125.379 29.5713 126.434 29.0852 126.434 27.6674C126.434 26.2901 125.399 25.6825 123.595 25.6825H121.039Z" fill="#080F20"/>
<path d="M132.761 33.3792H139.798V35.2426H130.692V23.8393H139.636V25.7027H132.761V28.4371H138.906V30.3005H132.761V33.3792Z" fill="#080F20"/>
<path d="M141.237 33.7843L142.191 32.1639C143.407 32.9944 144.725 33.5007 146.145 33.5007C147.585 33.5007 148.335 32.9134 148.335 32.1639C148.335 31.1917 147.565 30.8879 145.78 30.5031C143.164 29.9562 141.562 28.984 141.562 26.9586C141.562 24.8116 143.488 23.6571 145.983 23.6571C147.605 23.6571 148.903 24.123 150.14 25.0141L149.004 26.5535C148.214 25.9864 147.058 25.5813 145.861 25.5813C144.543 25.5813 143.772 26.0269 143.772 26.9991C143.772 27.8295 144.482 28.2751 146.328 28.6802C149.126 29.2878 150.546 30.0372 150.546 32.0424C150.546 34.1691 148.66 35.4452 146.003 35.4452C144.137 35.4249 142.454 34.7565 141.237 33.7843Z" fill="#080F20"/>
</g>
<defs>
<clipPath id="clip0_11_76">
<rect width="151" height="43" fill="white"/>
</clipPath>
</defs>
</svg>
