<svg width="18" height="16" viewBox="0 0 18 16" fill="none" xmlns="http://www.w3.org/2000/svg">
<path fill-rule="evenodd" clip-rule="evenodd" d="M16.1737 0.100038C16.3903 0.0106111 16.6268 -0.0196272 16.8589 0.0124199C17.0911 0.044467 17.3105 0.137648 17.4948 0.282417C17.679 0.427185 17.8215 0.618338 17.9076 0.836291C17.9937 1.05424 18.0203 1.29116 17.9846 1.52277C17.4711 4.86216 16.5297 10.9814 16.03 14.2296C15.9954 14.4543 15.9034 14.6664 15.7629 14.8452C15.6224 15.024 15.4382 15.1636 15.228 15.2503C15.0178 15.3371 14.7888 15.3682 14.563 15.3406C14.3373 15.313 14.1225 15.2276 13.9394 15.0927C12.1716 13.7903 9.52116 11.8375 8.17549 10.8457C8.07164 10.7691 7.98587 10.6707 7.92421 10.5574C7.86256 10.4441 7.82654 10.3186 7.81869 10.1899C7.81084 10.0611 7.83135 9.93222 7.87878 9.81225C7.92621 9.69229 7.9994 9.58421 8.09318 9.49563C9.32623 8.33109 11.7821 6.01172 13.4718 4.41582C13.5116 4.378 13.5358 4.32667 13.5398 4.27191C13.5437 4.21714 13.527 4.16288 13.4931 4.11976C13.4591 4.07664 13.4102 4.04776 13.356 4.03879C13.3019 4.02982 13.2463 4.0414 13.2002 4.07127C11.0337 5.48431 7.71562 7.64815 6.08942 8.7087C5.78465 8.90747 5.44213 9.04117 5.08331 9.10145C4.72448 9.16172 4.35707 9.14727 4.00409 9.05898C3.10864 8.83515 1.81703 8.51219 0.667609 8.22491C0.487652 8.17994 0.326472 8.07934 0.207027 7.93743C0.0875817 7.79552 0.0159621 7.61953 0.00236978 7.43454C-0.0112226 7.24955 0.0339056 7.06499 0.131326 6.90714C0.228746 6.7493 0.373491 6.62622 0.544943 6.55543C4.54622 4.9027 12.3767 1.66861 16.1737 0.100038Z" fill="#B7B9CC"/>
</svg>
